<svg xmlns="http://www.w3.org/2000/svg" viewBox="0 -1 32 34">
    <path
        d="M31.13,0.98c-0.56-0.57-1.31-0.88-2.11-0.89L3.1,0c0,0-0.01,0-0.01,0C1.45,0,0.1,1.34,0.1,2.98L0.09,5.44L0.08,6.97
		c0,0.8,0.31,1.55,0.87,2.12s1.31,0.88,2.11,0.89l2.71,0.01v0l9.75,0.04v0l7.76,0.03c0.16,0,0.3,0.06,0.41,0.17
		c0.11,0.11,0.17,0.26,0.17,0.41l-0.03,7.14c0,0.32-0.27,0.58-0.59,0.58c0,0,0,0,0,0L11.9,18.32c-0.14,0.01-0.26,0.03-0.39,0.08
		l-0.95,0.39c-0.06,0.02-0.11,0.05-0.16,0.08l-4.64,3.02L5.6,19.62c-0.01-0.19-0.1-0.36-0.2-0.5c-0.09-0.46-0.47-0.82-0.96-0.82
		l-1.81-0.01c-0.15,0-0.3-0.06-0.41-0.17C2.1,18,2.04,17.85,2.04,17.7l0.01-3.17c0-0.55-0.44-1-1-1c0,0,0,0,0,0c-0.55,0-1,0.45-1,1
		l-0.01,3.17c0,0.69,0.26,1.34,0.75,1.83s1.14,0.76,1.82,0.77l1.03,0l0.24,3.44c0.03,0.35,0.24,0.67,0.55,0.82
		c0.14,0.07,0.29,0.1,0.45,0.1c0.19,0,0.38-0.05,0.54-0.16l5.99-3.89l0.68-0.28l11.15,0.04c0,0,0.01,0,0.01,0
		c1.42,0,2.58-1.15,2.59-2.58l0.03-7.14c0-0.69-0.26-1.34-0.75-1.83c-0.49-0.49-1.14-0.76-1.82-0.77L10.69,8L3.07,7.97
		c-0.26,0-0.51-0.11-0.7-0.3c-0.19-0.19-0.29-0.44-0.29-0.7l0.01-1.52L2.1,2.99C2.1,2.44,2.55,2,3.09,2c0,0,0,0,0,0l25.91,0.1
		c0.26,0,0.51,0.11,0.7,0.3C29.9,2.58,30,2.83,30,3.1l-0.1,25.91c0,0.55-0.45,0.99-0.99,0.99c0,0,0,0,0,0L2.99,29.9
		c-0.55,0-0.99-0.45-0.99-1l0.01-3.05c0-0.55-0.44-1-1-1c0,0,0,0,0,0c-0.55,0-1,0.45-1,1L0,28.9c-0.01,1.65,1.33,3,2.98,3L28.9,32
		c0,0,0.01,0,0.01,0c1.64,0,2.99-1.33,2.99-2.98L32,3.1C32,2.31,31.69,1.55,31.13,0.98z"
    />
</svg>
