<svg xmlns="http://www.w3.org/2000/svg" viewBox="0 0 40 32">
    <path
        fill="none"
        stroke="#000000"
        stroke-linecap="round"
        stroke-linejoin="round"
        stroke-width="2"
        d="M5,5.47V3A2,2,0,0,1,7,1H33a2,2,0,0,1,2,2V29a2,2,0,0,1-2,2H7a2,2,0,0,1-2-2V25.94"
        transform="translate(0 0)"
    />
    <path fill="#fff" d="M12.76,14.57a.8.8,0,0,1-.8.8.8.8,0,0,1,0-1.6.8.8,0,0,1,.8.8" transform="translate(0 0)" />
    <circle cx="11.96" cy="14.57" r="0.8" fill="none" stroke="#000000" stroke-miterlimit="10" />
    <path fill="#fff" d="M17.53,14.57a.79.79,0,0,1-.79.8.8.8,0,0,1,0-1.6.79.79,0,0,1,.79.8" transform="translate(0 0)" />
    <circle cx="16.74" cy="14.57" r="0.8" fill="none" stroke="#000000" stroke-miterlimit="10" />
    <path fill="#fff" d="M22.31,14.57a.8.8,0,0,1-.8.8.8.8,0,0,1,0-1.6.8.8,0,0,1,.8.8" transform="translate(0 0)" />
    <path
        fill="none"
        stroke="#000000"
        stroke-miterlimit="10"
        d="M22.31,14.57a.8.8,0,0,1-.8.8.8.8,0,0,1,0-1.6A.8.8,0,0,1,22.31,14.57Z"
        transform="translate(0 0)"
    />
    <path
        fill="none"
        stroke="#000000"
        stroke-linecap="round"
        stroke-linejoin="round"
        stroke-width="2"
        d="M5,14.57v3.18a1.6,1.6,0,0,0,1.59,1.6H8.41"
        transform="translate(0 0)"
    />
    <path
        fill="none"
        stroke="#000000"
        stroke-linecap="round"
        stroke-linejoin="round"
        stroke-width="2"
        d="M8.58,19.74l.3,4,6.07-4,1-.39H27.28a1.6,1.6,0,0,0,1.6-1.6V10.59A1.6,1.6,0,0,0,27.28,9H14.64"
        transform="translate(0 0)"
    />
    <line x1="19.5" x2="9.72" y1="9" y2="9" fill="none" stroke="#000000" stroke-miterlimit="10" stroke-width="2" />
    <path
        fill="none"
        stroke="#000000"
        stroke-linecap="round"
        stroke-linejoin="round"
        stroke-width="2"
        d="M14.64,9H7A2,2,0,0,1,5,7V5.47"
        transform="translate(0 0)"
    />
</svg>
