<svg xmlns="http://www.w3.org/2000/svg" viewBox="0 0 48001.761 47999.041">
    <path fill="#ae9962" fill-rule="nonzero" d="M.01777 24026.4902C-15.8599 10770.3993 10714.79926 12.39527 23971.77225-3.4824c13255.2088-15.87768 24013.21284 10715.66357 24029.9726 23971.75447 15.87767 13254.32672-10716.54567 24012.33075-23971.75447 24028.20842C10773.89948 48013.24025 16.77754 37280.8169.89987 24026.49019z"/>
    <path fill-rule="nonzero" d="M1032.94847 24025.6081C1017.95289 11341.11336 11288.15959 1045.32597 23972.65434 1029.4483c12683.61266-14.9956 22977.63587 10255.2111 22993.51354 22939.70586 14.99558 12683.61266-10253.44694 22978.51797-22937.94169 22993.51354-12684.49475 14.99558-22980.28215-10254.32903-22995.27772-22937.94169z"/>
    <path fill="#ae9962" fill-rule="nonzero" d="M7469.57977 24017.66927c-11.4672-9147.30254 7394.58411-16571.8778 16541.88666-16583.34502 9147.30254-10.58511 16571.8778 7395.4662 16582.46292 16543.65084 11.4672 9145.53836-7394.58411 16570.99572-16541.88665 16582.46293-9148.18464 11.4672-16570.99572-7395.4662-16582.46293-16541.88666z"/>
    <path fill="#ae9962" fill-rule="nonzero" d="M43620.38981 14507.82658c48.51511 321.08178-2.64627 625.4038-156.13042 920.9049-124.3751 235.51878-286.68017 435.75385-489.56152 602.4694-201.11716 163.18717-404.8806 297.26528-610.40823 406.64479-520.43476 266.39203-1016.17093 387.23875-1484.56222 361.65805-631.57846-32.63743-1095.55928-345.78038-1402.52758-938.54676l-863.56887-1688.32565 3919.1384-2004.1149 863.56887 1689.20776c120.84671 242.57552 196.7067 458.68827 224.05157 649.22031zm-1361.9513-1195.23577-2558.06919 1307.26156 385.47457 755.95354c197.58879 385.47456 523.08104 557.48266 985.29767 516.0243 249.63227-23.8165 517.78849-111.1437 809.76121-258.4532 400.47014-203.76344 673.91892-420.75827 821.22842-657.15915 149.95578-231.10831 130.54974-533.66615-58.21813-909.4377l-385.47456-755.95354zM40475.7289 9750.7c63.51068 169.36182 84.68091 340.48783 64.39278 520.43476-15.87767 143.78113-54.68976 283.1518-116.43625 417.2299-60.86441 131.43184-153.48416 255.80692-280.50552 377.53573-152.60206 142.01695-337.84155 246.1039-560.12894 306.08621-216.99484 60.8644-437.51804 29.10907-667.74427-89.97347 79.38836 203.76345 91.73766 387.23875 37.93 553.0722-51.16139 162.30508-188.76787 349.30876-414.58363 563.65731l-216.11274 201.99926c-144.66322 135.8423-238.16506 231.99041-282.2697 296.38319-66.15697 95.26602-90.85557 191.41414-68.80324 293.7369l-80.27045 74.9779-690.67868-739.19379c50.2793-84.6809 95.26603-150.83787 130.54974-203.76344 74.0958-101.44067 157.01252-195.8246 251.39645-287.56226l294.619-284.03389c203.76345-193.17832 303.43993-357.24759 304.32203-496.61825 1.76418-133.19602-89.09138-297.26528-275.21296-499.26454l-648.33823-694.20705-1260.51064 1179.3581-613.0545-655.39496 3214.34623-3007.05443 1474.8592 1577.18197c204.64553 228.46204 341.36992 425.16873 403.11641 596.29474zm-1822.40376-995.8828-863.56888 807.99703 711.84891 761.2461c141.13485 149.95578 264.62785 246.986 370.47898 291.09063 185.2395 76.74208 366.06852 29.99116 548.66174-137.60648 194.06042-181.71112 265.50994-366.95061 211.70228-561.01103-29.99116-106.73323-113.78998-231.99041-249.63227-380.182l-730.37286-781.53424zm-4625.69475 389.88503c-456.92408 129.66765-957.9528 37.93-1505.73245-273.44877-543.36917-313.14295-875.91817-700.3817-994.1186-1164.36252-176.41857-584.82754-67.03906-1217.2881 326.37434-1907.96677 402.23432-698.61752 895.32421-1111.43696 1486.3264-1238.45832 456.92408-130.54974 958.8349-37.93 1505.73244 274.33086 543.36918 313.14295 875.03608 700.3817 993.23652 1164.36253 182.59321 570.71405 72.33161 1204.0567-328.13853 1907.08467-393.4134 682.73985-885.6212 1093.7951-1483.68012 1240.2225zm-164.95136-867.09724c319.3176-125.25718 604.23358-403.11642 851.21957-831.81353 245.2218-427.81502 342.25202-809.7612 291.09063-1152.89532-50.27929-338.72364-231.10832-598.05893-548.66173-783.29842-314.90714-183.4753-632.46055-209.9381-957.07071-85.563-319.3176 125.25718-603.3515 403.11642-852.98376 830.93143-246.98599 429.5792-344.8983 815.05377-291.09063 1155.5416 52.92557 340.48783 236.40088 601.5873 554.83638 784.18051 314.90714 183.47531 631.57846 209.056 951.77816 82.91673zM29186.705 6847.73253c-398.70595 256.689-905.90933 314.90714-1519.84593 177.30066-612.17241-140.25276-1041.75162-413.70154-1291.38389-822.9926-339.60573-506.32128-418.99409-1144.0744-245.2218-1919.43398 179.94694-785.06261 531.01988-1324.02132 1058.51138-1619.52242 398.70596-257.5711 905.02724-316.67132 1520.72803-178.18275 610.40823 140.25276 1040.86952 414.58363 1290.5018 822.9926 339.60573 491.3257 419.87617 1129.9609 241.69342 1919.43398-176.41856 767.42075-526.60941 1306.37946-1054.983 1620.4045zm-411.93735-781.53424c269.9204-213.46646 460.45246-561.01103 570.71406-1045.28 110.2616-479.85849 90.85556-873.27188-58.21813-1186.41483-147.3095-309.61458-396.05967-505.43919-753.30727-590.1201-354.6013-80.27045-667.74426-14.99558-939.42885 198.47088-269.0383 214.34856-460.45245 562.77522-573.36033 1044.3979-111.1437 483.38687-92.61975 880.32864 59.98231 1190.8253 149.07369 309.61459 401.35223 506.32129 760.36401 588.35592 354.60131 81.15254 663.3338 14.11349 933.2542-200.23507zm-8170.82579-3762.12588 961.48118-67.92114 1967.06698 2940.01536-218.75901-3065.27254 854.74794-59.98232 312.26086 4390.17597-917.37654 64.39277-2014.7-2989.41256 222.2874 3118.19812-854.74795 60.8644-313.14295-4390.17596zM18424.2905 3590.16374l-2200.82158 761.2461 305.20411 883.85701 2020.87465-698.61751 249.63227 721.55193-2020.87465 698.61751 369.5969 1069.9786 2304.02644-796.52983 257.5711 748.01472L16557.7821 8067.6669l-1437.8113-4159.94974 3050.27697-1054.10092 254.92483 736.5475zm-6180.82439 1902.67422 842.39865-613.05451 427.81502 3087.32487 973.83047 1337.25271-743.60425 541.605-973.83047-1337.25272L9921.7978 7184.69199l876.80027-637.75311 1866.5084 1011.76046-420.75827-2064.97929zM9181.72194 8877.4281l-1526.02058 1759.77517 706.55635 611.29033 1400.7634-1614.22986 577.7708 500.14663-1401.6455 1615.11195 855.63004 741.84006 1595.7059-1840.92771 598.05894 517.78848-2184.94392 2520.13919-3324.60783-2883.56143 2115.25858-2438.10456 588.3559 510.73175zM3865.3485 15323.76244l1413.9948-2782.12076 688.91448 351.07294-999.41116 1967.067 903.26305 458.68826 875.03607-1721.84519 680.97566 345.78039-875.03608 1721.84518 1644.22102 837.1061-412.81944 814.17166-3919.1384-1990.0014zm4998.82002 17652.44151c11.4672 179.94694-17.64186 351.07294-89.97347 516.9064-57.33603 133.196-134.0781 254.04272-232.8725 365.18642-97.9123 107.61532-222.2874 198.47088-378.41782 278.74133-187.88577 90.85556-395.17758 137.60648-626.2859 129.66765-224.93367-5.29256-426.93293-99.6765-613.05451-282.2697 17.64185 217.87692-24.6986 397.82385-124.3751 539.8408-97.9123 141.13485-283.15179 278.74133-560.12893 418.112l-266.39203 128.78555c-179.06485 88.20928-298.14738 152.60206-357.2476 201.11716-90.85556 71.44952-142.01694 157.01252-151.71996 260.21738l-99.67649 48.5151-444.57478-908.5556c74.0958-67.03905 135.8423-117.31834 185.2395-157.01252 98.79439-76.74207 206.40971-142.01694 323.72806-201.99926l364.30433-185.23949c251.39646-125.25718 395.17759-253.16064 436.63595-387.23875 40.57627-125.25718.8821-308.73248-117.31835-557.48266l-417.2299-852.98375-1549.83709 759.48191-395.17758-807.11493 3953.54002-1935.31164 949.13187 1939.7221c128.78556 278.74134 200.23507 507.20338 209.9381 688.0324zm-1451.04269-1483.68012-1062.03975 519.55267 458.68826 935.90048c90.85556 185.2395 179.94694 313.14295 268.15622 387.23875 156.13043 126.13927 342.25201 135.8423 566.3036 28.22697 238.16505-117.31835 361.65805-272.56668 366.06851-473.68385 1.76419-112.02578-41.45836-255.80691-127.90346-436.63594l-470.15547-960.59908zm1874.44724 8157.5944c-474.56593-10.58512-927.07955-245.2218-1360.18712-702.14589-427.81502-458.68827-631.57846-926.19746-609.52614-1404.29177 1.76418-611.29032 291.09063-1183.76856 869.74352-1728.01983 589.238-551.30802 1180.2402-801.82238 1782.70959-751.54309 474.56593 9.70303 927.96164 244.33972 1360.18713 703.91008 427.81501 457.80617 631.57845 924.43327 609.52613 1403.40967 7.05675 598.05893-282.2697 1171.41927-870.6256 1726.25565-576.00662 538.07662-1167.8909 789.47307-1781.8275 753.30727zm96.14812-877.68236c343.1341-27.34488 695.08914-209.056 1057.6293-546.89755 359.89386-336.07736 563.6573-673.91891 614.81869-1017.05302 51.16138-338.72364-45.86883-639.5173-294.619-911.20188-249.63227-265.50994-546.01546-385.47457-890.03166-360.77597-343.1341 26.46279-695.08914 208.1739-1060.27557 545.13337-362.54015 337.84155-568.06777 678.32938-615.70079 1020.58139-48.5151 340.48783 49.3972 643.92776 299.91156 912.96607 249.63227 265.50994 543.36918 382.82828 887.38538 357.24759zm3834.45749-999.41117 2992.94094 1937.95793-424.28665 653.63078-1104.3802-714.49518-1969.71328 3039.69185-777.12377-502.7929 1969.71327-3039.69186-1110.55486-719.78774zm3920.02049 2322.5504 3392.52899 1097.32347-239.04716 741.84006-1253.4539-404.8806-1115.84741 3445.45455-880.32863-284.91598 1115.84741-3446.33665-1258.74645-407.52688zm7701.55241 4975.0035-26.46278 791.23726-3333.42877-113.78997 148.1916-4397.2327 3225.81344 108.49741-25.5807 777.12377-2328.72504-77.62416-30.87325 935.01839 2136.42881 71.44951-25.58069 763.89239-2137.3109-72.33162-37.0479 1131.7251zm4259.62623-4253.45157c178.18275 29.10906 337.84155 96.14811 481.62268 203.76344 119.08253 85.563 218.75902 187.88577 305.20412 308.73249 82.03463 119.08253 142.89903 261.09947 186.12158 433.10757 46.75092 201.99926 44.98674 415.46572-14.99558 637.7531-57.33603 217.87694-193.17832 394.2955-411.93734 534.54826 216.11274 32.63743 381.0641 112.90788 498.38244 242.57552 115.55416 127.02137 206.40972 337.84155 279.62342 639.5173l66.15697 288.44435c45.86882 194.06042 82.03463 323.72806 117.31834 392.5313 49.3972 104.96905 119.96462 173.77229 219.64111 205.52763l24.6986 107.61533-985.29768 229.34413c-47.63301-87.32719-82.03463-158.7767-111.1437-215.23065-51.16138-114.67207-91.73765-233.7546-123.49299-361.65806l-99.67649-396.94176c-67.03905-273.44878-157.89461-441.04641-278.74133-511.61384-112.90788-68.80324-301.67574-71.44952-568.94987-11.4672l-925.31536 215.23064 390.76711 1681.26892-875.91817 202.88134-995.88279-4286.9711 2102.90928-488.67942c301.67575-63.51069 539.8408-81.15254 718.90565-49.3972zm-1773.00657 1079.6816 267.27413 1152.89532 1014.40674-236.40087c201.11716-45.86883 347.54457-104.08695 438.40013-174.65438 158.77671-122.6109 208.1739-302.55784 155.24834-545.13336-59.98231-258.4532-185.2395-413.70154-380.182-463.09873-106.73324-26.46279-258.4532-16.75977-453.39572 26.46278l-1040.86952 241.69343zm5998.23118-3055.56952c317.55341-66.15696 624.52172-29.99116 928.84374 108.49742 241.69343 111.1437 449.86734 263.74575 627.168 456.92408 173.77228 193.17833 317.5534 389.00293 437.51803 588.3559 293.73691 507.20338 440.16432 993.23652 440.16432 1462.5099-.8821 632.46056-286.68017 1113.20114-864.45096 1450.1606l-1641.57474 950.01397-2205.23205-3808.8768 1640.69264-950.89606c235.51879-133.19602 447.22106-220.5232 636.87102-258.4532zm-1121.13997 1422.81572 1438.69338 2485.73757 734.78332-424.28665c374.88945-216.99483 528.3736-551.30801 463.09873-1010.87837-35.2837-246.986-136.72438-509.84965-298.14737-796.52982-224.05157-386.35665-456.04199-650.1024-699.4996-784.18052-239.04716-138.48857-538.95872-103.20486-905.02724 105.85114l-733.01913 425.16874zm3849.45306-3651.86428 707.43844-761.2461 4284.32483 1855.9233-679.21147 730.37285-855.63004-408.40898-1105.2623 1186.41485 454.2778 839.75236-654.51287 704.79216-2153.18857-4148.48253zm1965.3028 1907.08468 761.2461-817.70004-1641.57473-778.00587 879.44654 1595.70591zm1779.18122-7079.67697 619.22916-1168.77299 3888.26515 2061.45092-401.35223 757.71773-2740.6624-1458.98152c-73.2137-39.69418 2312.84738 2215.81716 2312.84738 2215.81716l-411.05525 818.58214s-3261.09716-686.26821-3183.47299-649.22032l2766.24308 1466.03827-400.47014 757.71773-3889.14724-2061.45092 626.2859-1182.88647 3361.65574 771.83122-2549.24825-2327.84295z"/>
    <path fill="#e2001a" fill-rule="nonzero" d="m20299.61984 22848.89628-9.70302-8356.94737 3676.56287-4.41047v8326.07413z"/>
    <path fill="#ae9962" fill-rule="nonzero" d="M42552.17541 24153.51156c-.8821-601.5873 486.03314-1087.62044 1086.73835-1088.50254 600.70521-.88209 1086.73836 485.15106 1087.62045 1085.85627.8821 599.82311-484.26896 1088.50254-1084.97417 1089.38463-601.5873.8821-1089.38463-486.03315-1089.38463-1085.85626z"/>
    <path fill="#e2001a" fill-rule="nonzero" d="m23971.77225 13258.78314-9267.26717 121.72881.8821 1117.6116 1099.96974-1.76418s1217.2881-.8821 1219.93437 1721.84519c1.76419 1712.14216 19.40604 16083.19838 19.40604 16083.19838 1.76419 1223.46274-1031.1665 1302.8511-1429.87246 1302.8511-825.63888 0-825.63888.88209-825.63888.88209l1.76419 1188.17903 7949.4205-9.70302-1.7642-1188.17903s-736.5475 1.76419-1009.99627 1.76419c0 0-1436.04711-106.73324-1437.8113-1321.37505-1.76418-1498.6757-9.70302-8205.22741-9.70302-8205.22741l3684.50171 5.29256V39885.637c-8671.85451 10.58512-15675.6715-7197.8774-15686.25662-15868.84982-10.58511-8670.97242 7015.2842-15709.19103 15686.25662-15719.77615l5.29256 4962.6542z"/>
    <path fill="#fff" fill-rule="nonzero" d="M23966.4797 39884.75492c8670.97241-10.58512 15744.47474-7236.6895 15733.88962-15907.66192-10.58511-8670.97242-7062.9172-15692.43127-15733.88963-15681.84615l5.29256 4962.6542 7569.23849-86.4451 679.21147 5380.7662-1222.58065 1.7642s-262.86366-1849.74865-1502.20407-2811.22982c-826.52097-641.28148-1866.5084-1291.3839-3671.27032-1289.6197-970.3021.88209-1856.80538 26.46278-1856.80538 26.46278v8333.13087c306.0862 0 1545.42662-345.78039 1545.42662-1805.644 0-576.8887-17.64186-581.29917-17.64186-581.29917l1024.99186-.8821 1323.13923 7183.76393-1223.46275 32.63743c-224.93366-856.51212-780.65214-3760.36169-2654.21729-3567.18336v15809.74961z"/>
    <path fill="#ae9962" fill-rule="nonzero" d="M3236.41633 24153.51156c-.8821-601.5873 486.03314-1087.62044 1086.73835-1088.50254 600.70521-.88209 1086.73836 485.15106 1087.62045 1085.85627.8821 599.82311-485.15105 1088.50254-1084.97417 1089.38463-601.5873.8821-1089.38463-486.03315-1089.38463-1085.85626z"/>
    <path fill="none" stroke="#ae9962" stroke-width="407.95693" d="M23954.1304 7963.57995v32176.0998" class="fil5 str0"/>
</svg>
