<svg xmlns="http://www.w3.org/2000/svg" viewBox="0 0 428.97 220.98" fill="#ffffff">
    <path d="M182.47 79.42 167.8 124.5c-.03.08 0 .16.07.21 0 0 .11.1.22.18l.24.16c.07.05.16.05.22 0l38.34-27.88 38.33 27.88c.06.05.15.05.22 0 0 0 .12-.07.24-.16s.22-.18.22-.18c.07-.05.1-.14.07-.21L231.3 79.43l38.36-27.84c.07-.05.1-.13.07-.21 0 0-.03-.14-.08-.28-.04-.14-.1-.27-.1-.27-.02-.08-.1-.13-.18-.13l-47.4.02-14.61-45.1c-.02-.08-.1-.13-.18-.13 0 0-.14-.01-.29-.01-.14 0-.29.01-.29.01-.08 0-.16.06-.18.13L191.8 50.71l-47.4-.02c-.08 0-.15.05-.18.13 0 0-.06.13-.1.27-.04.14-.07.28-.07.28-.03.08 0 .17.07.21l38.35 27.84z"/>
    <path d="M246.1 130.45c-.73 0-1.43-.21-2.02-.59 0 0-1.53-.95-3.89-2.55-6.89-4.65-23.78-16.11-33.3-22.85-9.12 6.46-24.73 17.06-33.29 22.85-2.38 1.61-3.91 2.56-3.92 2.57-.56.37-1.25.57-1.99.57-.67 0-1.34-.18-1.85-.48-.47-.28-.87-.58-.97-.65-.18-.11-.46-.32-.91-.71-.82-.71-1.51-2.18-1.09-3.71 0-.01.42-1.7 1.22-4.49 2.86-9.93 8.11-28.03 11.45-38.73-8.97-6.68-23.87-18.25-32.02-24.6-2.27-1.77-3.64-2.93-3.65-2.94-1.17-.93-1.53-2.53-1.27-3.62.12-.51.26-.95.31-1.1.05-.22.17-.56.4-1.11.42-1 1.6-2.11 3.19-2.18-.01 0 1.75-.13 4.65-.23 10.34-.35 29.2-.95 40.37-1.08 3.58-10.58 9.98-28.34 13.5-38.06.99-2.74 1.66-4.37 1.67-4.38.52-1.39 1.93-2.23 3.05-2.33.42-.04.81-.04 1.01-.04h.29c.21 0 .6.01 1.02.04 1.08.09 2.5.87 3.06 2.36.16.39.81 2.04 1.65 4.35 3.53 9.74 9.94 27.52 13.5 38.06 11.19.13 30.04.73 40.37 1.08 2.91.1 4.66.23 4.68.23 1.56.07 2.74 1.18 3.16 2.18.19.44.33.87.39 1.06.12.26.21.63.33 1.14.25 1.06-.05 2.65-1.3 3.64-.24.2-1.56 1.3-3.63 2.91-8.16 6.36-23.06 17.93-32.02 24.61 3.34 10.69 8.59 28.8 11.44 38.73.81 2.82 1.23 4.52 1.23 4.53.42 1.5-.28 2.96-1.1 3.67-.38.33-.74.59-.88.69-.2.18-.52.39-.99.67-.51.32-1.18.49-1.85.49z" />
    <path d="M182.47 79.42 167.8 124.5c-.03.08 0 .16.07.21 0 0 .11.1.22.18l.24.16c.07.05.16.05.22 0l38.34-27.88 38.33 27.88c.06.05.15.05.22 0 0 0 .13-.07.24-.16.12-.09.22-.18.22-.18.07-.05.1-.14.07-.21L231.3 79.43l38.36-27.84c.07-.05.1-.13.07-.21 0 0-.03-.14-.08-.28-.04-.14-.1-.27-.1-.27-.02-.08-.1-.13-.18-.13l-47.4.02-14.61-45.1c-.02-.08-.1-.13-.18-.13 0 0-.14-.01-.29-.01-.14 0-.29.01-.29.01-.09 0-.16.06-.18.13L191.8 50.71l-47.4-.02c-.08 0-.15.05-.18.13 0 0-.06.13-.1.27-.04.14-.07.28-.07.28-.03.08 0 .17.07.21l38.35 27.84z"/>
    <path d="m295.51 115.34.03-.42h-2.81c-.11 2.52 1.42 4.21 3.97 4.21 2.78 0 4.46-1.69 4.46-4.47 0-1.6-.64-3.15-2.32-3.56v-.05c1.47-.59 1.85-2.12 1.85-3.54 0-2.41-1.4-3.94-3.83-3.94-2.76 0-3.63 2.01-3.54 4.45h2.61v-.31c0-.66.14-1.57 1-1.57.87 0 1.03.87 1.03 1.54 0 1.68-.68 1.99-2.31 1.99v2.61c1.7-.06 2.27.41 2.27 2.1 0 .89-.08 2.13-1.3 2.13-.79 0-1.11-.68-1.11-1.17m-5.92-11.55h-8.15v2.59h4.05l-4.7 12.5h3.12zm-15.58 6.96v-.04c1.4-.47 2.07-1.76 2.07-3.19 0-2.21-1.49-3.96-3.77-3.96-2.31 0-3.78 1.74-3.78 3.96 0 1.44.72 2.72 2.05 3.18v.05c-1.86.63-2.62 2.05-2.62 3.99 0 2.48 1.83 4.38 4.35 4.38 2.53 0 4.31-1.9 4.31-4.38 0-1.9-.71-3.39-2.61-3.99m-1.76-4.86c.81 0 .92 1.05.92 1.61 0 .54 0 1.69-.92 1.69-.75 0-.84-1.15-.84-1.71 0-.55.12-1.59.84-1.59m.03 10.62c-1.04 0-1.25-1.37-1.25-2.13 0-.78.22-2.19 1.23-2.19.97 0 1.33 1.44 1.33 2.19 0 .73-.29 2.13-1.31 2.13m-9.55-12.72h-4.33v2.59h1.45v12.5h2.88zm-140.26 0h-6.6v15.09h6.63v-2.81h-3.37v-3.4h2.93v-2.8h-2.93v-3.29h3.34zm31.45 11.53c-1.08 0-1.92.84-1.92 1.88 0 1.06.84 1.92 1.92 1.92 1.05 0 1.86-.86 1.86-1.92 0-1.03-.81-1.88-1.86-1.88m-4.14-11.53h-8.42v2.79h2.56v12.3h3.29v-12.3h2.57zm-14.11 3.4v-2.91c-.93-.46-1.86-.71-2.93-.71-2.81 0-4.32 2.02-4.32 4.43 0 2.18 1.15 3.31 3.05 4.47.91.63 1.94 1.05 1.94 2.2 0 1.01-.82 1.65-1.91 1.65-.95 0-1.71-.31-2.47-.81v2.87c.76.49 1.89.76 2.82.76 3.06 0 4.76-2.04 4.76-4.72 0-4.09-4.99-4.24-4.99-6.71 0-.91.65-1.49 1.64-1.49.93-.01 1.72.44 2.41.97m-28.84 97.58c-2.74 2.75-6.32 5.49-9.83 6.61-3.31 1.07-12.76 1.89-15.54-5.91-.6-1.69-.11-2.21 1.42-2.66 2.28-.68 8.15-2.4 14.35-4.73 5.62-2.1 10.64-4.67 12.21-5.72 2.81-1.85 3.23-4.45 2-7.24-3.95-8.87-12.88-18.16-27.72-15.33-11.8 2.25-20.25 12.87-20.25 25.02 0 15.04 9.06 23.84 20.6 26.57 10.66 2.54 23.21-2.63 28.57-11.32 2.12-3.37-3.87-7.34-5.81-5.29zm-26.71-11.84c-1.16-3.19-.23-12.95 5.15-14.8 5.66-1.94 9.13.98 10.82 6.68.63 2.11.49 4.34-.2 5.19-1 1.21-2.79 1.94-4.4 2.48l-4.24 1.41c-4.17 1.41-6.15 1.7-7.13-.96zm164.89 11.84c-2.74 2.75-6.32 5.49-9.83 6.61-3.31 1.07-12.76 1.89-15.54-5.91-.6-1.69-.11-2.21 1.42-2.66 2.28-.68 8.15-2.4 14.35-4.73 5.62-2.1 10.64-4.67 12.21-5.72 2.81-1.85 3.23-4.45 2-7.24-3.95-8.87-12.88-18.16-27.72-15.33-11.8 2.25-20.25 12.87-20.25 25.02 0 15.04 9.07 23.84 20.6 26.57 10.66 2.54 23.2-2.63 28.57-11.32 2.12-3.37-3.87-7.34-5.81-5.29zm-26.72-11.84c-.69-1.91-.64-6.16.66-9.67.88-2.36 2.19-4.2 4.48-5.12 2.59-1.04 4.8-.75 6.53.24 1.98 1.14 3.39 3.39 4.29 6.44.63 2.11.49 4.34-.2 5.19-1 1.21-2.57 1.83-4.4 2.48-1.83.66-3.47 1.18-4.24 1.43-4.18 1.3-6.14 1.67-7.12-.99zm132.05 11.84c-2.74 2.75-6.32 5.49-9.83 6.61-3.31 1.07-12.76 1.89-15.54-5.91-.6-1.69-.11-2.21 1.42-2.66 2.28-.68 8.15-2.4 14.35-4.73 5.62-2.1 10.64-4.67 12.21-5.72 2.81-1.85 3.23-4.45 2-7.24-3.95-8.87-12.88-18.16-27.72-15.33-11.8 2.25-20.25 12.87-20.25 25.02 0 15.04 9.06 23.84 20.6 26.57 10.66 2.54 23.21-2.63 28.57-11.32 2.12-3.37-3.87-7.34-5.81-5.29zm-26.72-11.84c-.69-1.91-.64-6.16.67-9.67.88-2.36 2.19-4.2 4.48-5.12 2.59-1.04 4.8-.75 6.53.24 1.98 1.14 3.39 3.39 4.29 6.44.63 2.11.49 4.34-.2 5.19-1 1.21-2.57 1.83-4.4 2.48-1.83.66-3.46 1.18-4.24 1.43-4.19 1.3-6.15 1.67-7.13-.99zm-284 14.7c0 2.02-.63 4.23-2.19 4.92l-3.36 1.52c-.6.28-.77.72-.77 1.39 0 .17.01.27.05.5l.4 3.82c.18 1.04.89 1.21 2.26 1.21h24.37c1.38 0 2.09-.17 2.26-1.21l.4-3.82c.03-.23.05-.33.05-.5 0-.67-.17-1.11-.77-1.39l-3.36-1.52c-1.55-.69-2.19-2.9-2.19-4.92v-42.21c0-2.02.63-4.23 2.19-4.92l3.36-1.52c.6-.27.77-.72.77-1.39 0-.17-.01-.27-.05-.5l-.4-2.87c-.18-1.04-.89-1.21-2.26-1.21H37.14c-1.38 0-2.09.17-2.26 1.21l-.4 2.87c-.03.23-.05.33-.05.5 0 .67.17 1.11.77 1.39l2.74 1.52c1.57.9 1.67 2.91 1.67 4.92v11.77c0 .82-.66 1.48-1.48 1.48h-13.2c-.82 0-1.48-.66-1.48-1.48v-11.77c0-2.02.1-4.02 1.67-4.92l2.74-1.52c.6-.27.77-.72.77-1.39 0-.17-.01-.27-.05-.5l-.4-2.87c-.18-1.04-.89-1.21-2.26-1.21H2.71c-1.38 0-2.09.17-2.26 1.21l-.4 2.87c-.03.23-.05.33-.05.5 0 .67.17 1.11.77 1.39l3.36 1.52c1.55.69 2.19 2.91 2.19 4.92v42.21c0 2.02-.63 4.23-2.19 4.92l-3.36 1.52c-.6.28-.77.72-.77 1.39 0 .17.01.27.05.5l.4 3.82c.18 1.04.89 1.21 2.26 1.21h24.37c1.38 0 2.09-.17 2.26-1.21l.4-3.82c.03-.23.05-.33.05-.5 0-.67-.17-1.11-.77-1.39l-3.36-1.52c-1.55-.69-2.19-2.9-2.19-4.92v-17.16c0-.82.66-1.48 1.48-1.48h13.2c.82 0 1.48.66 1.48 1.48v17.16zm96.05-47.51c0 4.69-3.94 8.49-8.8 8.49-4.86 0-8.79-3.8-8.79-8.49s3.94-8.49 8.79-8.49c4.86 0 8.8 3.8 8.8 8.49zm-18.41 60.86c-1.32 0-2-.16-2.17-1.16l-.38-3.81c-.03-.22-.03-.32-.03-.48 0-.64.18-1.03.72-1.33l2.62-1.46c1.45-.7 2.1-2.79 2.1-4.72v-24.1c0-2.02-.35-4.59-2.12-5.48l-1.68-.97c-.6-.27-.77-.72-.77-1.38 0-.17.01-.27.05-.5l.4-2.87c.18-1.04.89-1.21 2.26-1.21h16.46c.82 0 1.48.66 1.48 1.48v35.03c0 1.94.65 4.02 2.1 4.72l2.62 1.46c.55.3.72.69.72 1.33 0 .16.01.27-.03.48l-.38 3.81c-.17 1-.85 1.16-2.17 1.16h-21.8zm49.82-46.9s.93-.45 2.59-1.26c3.3-1.55 9.75-4.32 15.08-2.62 4.62 1.48 8.61 4.83 8.61 13.63v26.67c0 1.14.05 1.61.58 1.9.71.39 1.94-.77 3.12-1.38 1.19-.61 1.85.11 2.58.91.64.71 1.4 1.7.78 3.01-1.97 4.13-6.38 6.5-11.55 6.5-4.88 0-11.09-2.8-11.09-10.11v-25.68c0-3.92-2.85-5.29-5.06-5.01-3.34.41-5.77 3.21-5.77 8.19v19.19c0 1.94.65 4.02 2.1 4.72l2.62 1.46c.55.3.72.69.72 1.33 0 .16.01.27-.03.48l-.38 3.81c-.17 1-.85 1.16-2.17 1.16H148c-1.32 0-2-.16-2.17-1.16l-.38-3.81c-.03-.22-.03-.32-.03-.48 0-.64.18-1.03.72-1.33l2.62-1.46c1.45-.7 2.1-2.79 2.1-4.72v-24.1c0-2.02-.34-4.59-2.11-5.48l-1.68-.97c-.6-.27-.77-.72-.77-1.38 0-.17.01-.27.05-.5l.4-2.87c.18-1.04.89-1.21 2.26-1.21h15.51c1.22 0 1.69.7 2.04 1.48l.52 1.09zm212.83 0s.93-.45 2.59-1.26c3.3-1.55 9.75-4.32 15.08-2.62 4.62 1.48 8.61 4.83 8.61 13.63v26.67c0 1.14.05 1.61.58 1.9.71.39 1.94-.77 3.12-1.38 1.19-.61 1.85.11 2.58.91.64.71 1.4 1.7.78 3.01-1.97 4.13-6.38 6.5-11.55 6.5-4.88 0-11.09-2.8-11.09-10.11v-25.68c0-3.92-2.85-5.29-5.06-5.01-3.34.41-5.77 3.21-5.77 8.19v19.19c0 1.94.65 4.02 2.1 4.72l2.62 1.46c.55.3.72.69.72 1.33 0 .16.01.27-.03.48l-.38 3.81c-.17 1-.85 1.16-2.17 1.16h-21.81c-1.32 0-2-.16-2.17-1.16l-.38-3.81c-.03-.22-.03-.32-.03-.48 0-.64.18-1.03.72-1.33l2.62-1.46c1.45-.7 2.1-2.79 2.1-4.72v-24.1c0-2.02-.34-4.59-2.12-5.48l-1.68-.97c-.6-.27-.77-.72-.77-1.38 0-.17.01-.27.05-.5l.4-2.87c.18-1.04.89-1.21 2.26-1.21h15.51c1.22 0 1.69.7 2.04 1.48l.53 1.09z" />
    <path d="M300.93 208.69c1.16 1.86 2.57 3.35 4.02 4.06l2.62 1.46c.55.3.72.69.72 1.33 0 .16 0 .27-.03.48l-.38 3.81c-.17 1-.85 1.16-2.17 1.16h-13.17c-2.25 0-2.42-.65-3.44-2.49l-11.04-20.1-4.15 3.98v5.66c0 1.94.91 3.96 2.42 4.72l2.62 1.46c.55.3.72.69.72 1.33 0 .16.01.27-.03.48l-.38 3.81c-.17 1-.85 1.16-2.17 1.16H255.3c-1.32 0-2-.16-2.17-1.16l-.38-3.81c-.03-.22-.03-.32-.03-.48 0-.64.18-1.03.72-1.33l2.62-1.46c1.45-.7 2.1-2.79 2.1-4.72v-43.15c0-1.93-.6-3.95-2.1-4.72l-2.62-1.46c-.55-.3-.72-.69-.72-1.33 0-.16-.01-.26.03-.48l.38-2.72c.17-1 .85-1.16 2.17-1.16h15.81c1.55 0 2.81 1.26 2.81 2.81v32.76l7.03-6.35c1-.86 2.64-2.3 3.28-2.94.64-.64.77-1.59-.14-1.97l-2.48-1.12c-.55-.25-.71-.65-.71-1.26 0-.15.01-.25.04-.46l.36-3.48c.16-.95.81-1.1 2.06-1.1h18.93c1.25 0 1.9.15 2.06 1.1l.36 3.48c.03.21.04.31.04.46.04.75-.85 1.12-1.4 1.37 0 0-1.35.39-2.57 1.09-1.22.7-2.53 1.74-4.17 3.22l-7.3 7.01 11.62 21.05zm101.89-50.5c0 7.23 5.86 13.09 13.08 13.09s13.08-5.86 13.08-13.09c0-7.22-5.86-13.06-13.08-13.06-7.23 0-13.08 5.84-13.08 13.06zm13.07 10.29c-5.69 0-10.29-4.6-10.29-10.29 0-5.67 4.6-10.28 10.29-10.28 5.67 0 10.29 4.6 10.29 10.28.01 5.69-4.61 10.29-10.29 10.29z" />
    <path d="M410.51 164.55h3.23v-5.5c.01 0 .2.02 1.29.07 1.62.07 2.46.36 2.94 1.87.34 1.05.5 2.03 1.17 3.56 1.43.03 1.83.03 3.31.03-.35-.88-.88-1.94-1.11-3.43-.24-1.55-.77-2.4-1.92-3.18 1.05-.38 2.11-1.68 2.11-3.58 0-2.99-3.12-3.92-4.26-3.92h-6.75v14.08zm5.85-8.31h-2.61v-3.21h2.28c.99 0 2.18.42 2.18 1.53 0 .98-.76 1.68-1.85 1.68z" class="st1"/>
</svg>
