<svg xmlns="http://www.w3.org/2000/svg" viewBox="0 0 652 652">
    <path fill="#ffffff" d="M517.7 217.4c-23.8 0-46.9 8.2-65.3 23.3-18.5-15.1-41.7-23.3-65.6-23.3-23.8-.1-46.9 8.1-65.3 23.3-17.9-14.5-40.6-23.3-65.3-23.3-23.8 0-46.9 8.2-65.3 23.3-17.9-14.5-40.6-23.3-65.3-23.3-57.5 0-103.8 46.2-103.8 103.5s46.3 103.5 103.8 103.5c24.7 0 47.7-8.8 65.3-23.2 17.9 14.5 40.6 23.2 65.3 23.2 24.7 0 47.7-8.8 65.3-23.2 18.5 15.1 41.7 23.3 65.6 23.2 25 0 47.7-8.8 65.6-23.2 18 14.5 40.6 23.2 65.3 23.2 57.5 0 103.8-46.2 103.8-103.5-.3-56.9-46.6-103.5-104.1-103.5zm-65.3 150c-9.7-13.6-14.9-29.8-14.9-46.5 0-17.2 5.4-33.4 14.9-46.5 9.7 13.6 14.9 29.9 14.9 46.5 0 17.5-5.8 33.4-14.9 46.5zm-130.9 0c-9.8-13.6-14.9-29.8-14.9-46.5 0-17.2 5.4-33.4 14.9-46.5 9.7 13.6 14.9 29.9 14.9 46.5 0 17.5-5.8 33.4-14.9 46.5zm-130.9 0c-9.7-13.6-14.9-29.8-14.9-46.5 0-17.2 5.4-33.4 14.9-46.5 9.8 13.6 14.9 29.9 14.9 46.5 0 17.5-5.7 33.4-14.9 46.5zM44.5 320.9c0-44.2 35.8-80.2 80.5-80.2 17.7 0 35 5.8 49 16.5-13.9 17.6-22 39.5-22 63.7 0 23.9 8.1 46.2 22 63.7-13.5 10.5-30.4 16.6-49 16.6-44.3 0-80.5-35.8-80.5-80.3zm162.3 63.7c13.9-17.5 22-39.4 22-63.7 0-23.9-8.1-46.2-22-63.7 13.5-10.4 30.4-16.5 49-16.5s35.5 6.1 49 16.5c-13.8 17.6-22 39.5-22 63.7 0 23.9 8.1 46.2 22 63.7-13.5 10.5-30.4 16.6-49 16.6-18.5 0-35.4-6.1-49-16.6zm130.9 0c13.9-17.5 22-39.4 22-63.7 0-23.9-8.1-46.2-22-63.7 13.6-10.4 30.4-16.5 49-16.5 17.7 0 35 5.8 49 16.5-13.8 17.6-22 39.5-22 63.7 0 23.9 8.1 46.2 22 63.7-13.6 10.5-30.4 16.6-49 16.6-17.6 0-34.9-5.8-49-16.6zm180 16.6c-17.7 0-35-5.8-49-16.6 13.8-17.5 21.9-39.4 21.9-63.7 0-23.9-8.1-46.2-21.9-63.7 13.5-10.4 30.4-16.5 49-16.5 44.3 0 80.5 35.7 80.5 80.2s-36.2 80.3-80.5 80.3zm0 0" />
</svg>
