<svg xmlns="http://www.w3.org/2000/svg" viewBox="0 0 93.750969 20.659338">
    <path fill="#c4151c" d="M.18188 20.48841c-.1-.1-.18182-.75134-.18182-1.44743v-1.26562l1.52136-.0794 1.52135-.0793.0703-7.34219.0703-7.34218H0V.02187l6.41615-.0162c3.52888-.009 16.2388-.007 28.24427.004 12.00547.011 28.409197.0183 36.452737.0162l14.62462-.004-.0725 1.38906-.0725 1.38907-38.968837.067-38.96884.067.0751 2.84339c.0711 2.69215.10574 2.84776.6513 2.92544.45946.0654.59347-.0686.66145-.66146.0768-.66951.19716-.75159 1.20974-.82486l1.12448-.0814v5.58668h-.92604c-.50933 0-1.01534.0298-1.12448.0661-.10914.0364-.23681-.26843-.2837-.67736-.068-.59287-.20199-.72688-.66145-.66146-.55373.0788-.57621.20075-.57621 3.12475v3.04271l1.53471.0797 1.53471.0797-.0795 1.37546-.0795 1.37546-5.17599.0716c-2.8468.0394-5.25782-.0102-5.35782-.11024zm14.44162-.22131c-.47007-.20435-1.09471-.76524-1.38807-1.24641-.48916-.80231-.53347-1.32717-.53438-6.32928-.00094-5.19539.0263-5.48906.5726-6.18363.9607-1.22133 1.94418-1.45883 6.041-1.45883 5.95426 0 6.35.36223 6.35 5.81234v3.1835h-8.48893l.0773 2.05052.0773 2.05052 1.45521.15751c2.03623.22039 2.38125-.0146 2.38125-1.62203V15.3677h4.49792v1.33606c0 1.79641-.57875 2.82532-1.93578 3.44142-.91441.41516-1.72818.50178-4.67881.49802-2.47583-.003-3.83414-.11856-4.42656-.3761zm6.54323-10.16942c0-2.86442-.0398-2.93206-1.72646-2.93206-2.24906 0-2.24229-.008-2.24229 2.67414v2.35294h3.96875zm6.08542 9.01088c0-1.51153.0167-1.54761.66145-1.42436l.66146.12644V7.69479h-.66146c-.61736 0-.66145-.0882-.66145-1.32292V5.04895h5.82083V5.975c0 .50932.056.92604.12455.92604.0685 0 .63406-.3569 1.25678-.79312 1.3266-.92927 3.25443-1.28525 4.39712-.81194 1.25215.51866 1.49759 1.31922 1.49759 4.88471v3.20264l-2.30605.0763-2.30605.0763-.0752-2.85444-.0752-2.85444-1.26441 1.2296-1.26442 1.2296.0738 3.66519c.072 3.57388.0886 3.6673.6691 3.74974.5339.0758.59532.23277.59532 1.52135v1.43681h-7.14375zm14.55208-.0192c0-1.53024.0168-1.56694.66146-1.45003l.66146.11994V7.69476h-.66146c-.61736 0-.66146-.0882-.66146-1.32292V5.04892h5.82083v.92605c0 .50932.056.92604.12456.92604.0685 0 .64002-.36334 1.27003-.80741.80925-.57041 1.57134-.85136 2.59631-.95715 1.30511-.1347 1.53628-.0778 2.30184.56635l.85101.71608v7.09671H50.2709v-2.63022c0-1.44662-.10528-2.69528-.23395-2.7748-.12867-.0795-.72734.39068-1.33037 1.04489l-1.09642 1.18948.0736 3.63584c.0717 3.54352.0887 3.638.66891 3.7204.5339.0758.59531.23277.59531 1.52135v1.43681h-7.14375zm16.225697 1.18392c-1.32025-.57428-1.75598-1.49243-1.88626-3.97467-.12081-2.30162.19496-3.80598.92681-4.4155.27404-.22823 1.50124-.39838 3.4922-.48419l3.06967-.13229.0818-1.44107c.13268-2.33809-.0315-2.65997-1.35682-2.65997-1.42454 0-1.76767.3441-1.76767 1.77271v1.13771h-4.49791V8.87688c0-1.79944.59498-2.97816 1.74607-3.45911.76159-.31822 1.81958-.38758 4.89904-.32121 3.88999.0838 3.93471.0917 4.66056.8179l.73287.73324.0901 5.44935c.0843 5.0999.1225 5.45783.59531 5.58148.4183.10938.50521.37714.50521 1.55646v1.42435l-5.22552-.0103c-3.84337-.008-5.44768-.107-6.06544-.37571zm5.67815-4.57488-.0757-2.57968-1.14403-.0823c-1.6529-.11893-1.89868.20137-1.89868 2.47432 0 2.69143.0482 2.76737 1.75768 2.76737h1.43649zm7.20031 3.40791c0-1.44356.042-1.5508.59532-1.52136.59491.0317.59536.0284.66729-4.92926l.072-4.96093h-.6673c-.62437 0-.6673-.0851-.6673-1.32292V5.04892h5.82084v1.83023l1.33188-.82794c.92837-.57711 1.76657-.86399 2.76666-.94693 1.32112-.10956 1.49858-.0552 2.24.68623l.80521.80521v6.91987h-4.49792v-2.63022c0-1.57217-.11315-2.70015-.28128-2.80406-.15471-.0956-.75002.33389-1.32292.95445l-1.04163 1.1283v7.58486h.66146c.62538 0 .66145.0794.66145 1.45521v1.45521h-7.14375zm15.34584.0978c0-1.48382.1184-1.62278 1.25677-1.47496.25451.0331.33073-1.11827.33073-4.99573V7.69474h-.79375c-.77611 0-.79375-.0294-.79375-1.32292V5.0489h7.40833v1.32292c0 1.23781-.0429 1.32292-.6673 1.32292h-.66729l.072 4.96093c.0714 4.91842.0771 4.96167.6673 5.04549.5339.0758.59531.23277.59531 1.52135v1.43681h-7.40833zm1.05833-16.73531c-2.04177-1.01997-.48425-2.44583 2.6725-2.44657.96055-.00022 2.12392.13118 2.58527.292 1.59473.55593 1.56971 1.74043-.0495 2.34151-1.19955.4453-4.15505.33922-5.2083-.18694z"/>
</svg>
