<svg xmlns="http://www.w3.org/2000/svg" viewBox="0 0 40 32">
    <line
        x1="28.77"
        x2="13.29"
        y1="13.02"
        y2="13.02"
        fill="none"
        stroke="#000000"
        stroke-linecap="round"
        stroke-miterlimit="10"
        stroke-width="2"
    />
    <line
        x1="28.77"
        x2="20.52"
        y1="19.02"
        y2="19.02"
        fill="none"
        stroke="#000000"
        stroke-linecap="round"
        stroke-miterlimit="10"
        stroke-width="2"
    />
    <line
        x1="28.77"
        x2="28.77"
        y1="23.02"
        y2="19.02"
        fill="none"
        stroke="#000000"
        stroke-linecap="round"
        stroke-miterlimit="10"
        stroke-width="2"
    />
    <line
        x1="34.97"
        x2="28.77"
        y1="16.02"
        y2="23.02"
        fill="none"
        stroke="#000000"
        stroke-linecap="round"
        stroke-miterlimit="10"
        stroke-width="2"
    />
    <line
        x1="28.77"
        x2="28.77"
        y1="13.02"
        y2="9.02"
        fill="none"
        stroke="#000000"
        stroke-linecap="round"
        stroke-miterlimit="10"
        stroke-width="2"
    />
    <line
        x1="34.97"
        x2="28.77"
        y1="16.02"
        y2="9.02"
        fill="none"
        stroke="#000000"
        stroke-linecap="round"
        stroke-miterlimit="10"
        stroke-width="2"
    />
    <path
        fill="none"
        stroke="#000000"
        stroke-linecap="round"
        stroke-miterlimit="10"
        stroke-width="2"
        d="M20.52,19V29a2,2,0,0,1-2.07,2H7.1A2,2,0,0,1,5,29V3A2,2,0,0,1,7.1,1H18.45a2,2,0,0,1,2.07,2V6.35"
        transform="translate(0 0.02)"
    />
</svg>
