<svg xmlns="http://www.w3.org/2000/svg" viewBox="0 0 40 32">
    <path
        fill="none"
        stroke="#000000"
        stroke-linecap="round"
        stroke-linejoin="round"
        stroke-width="2"
        d="M16.69,14.08a9.12,9.12,0,0,0-2.83-.46,8.68,8.68,0,1,0,8.82,8.68A8.53,8.53,0,0,0,22,18.87"
        transform="translate(0 0.01)"
    />
    <path
        fill="none"
        stroke="#000000"
        stroke-linecap="round"
        stroke-linejoin="round"
        stroke-width="2"
        d="M22,18.87l1.45-1.42L23,13.78l3.73.42-.43-3.67L30,11l-.42-3.67,3.72.42L35,6.08a40.26,40.26,0,0,0-.87-4.71A37.34,37.34,0,0,0,29.83,1l-8.16,8"
        transform="translate(0 0.01)"
    />
    <line
        x1="17.36"
        x2="11.13"
        y1="14.52"
        y2="20.65"
        fill="none"
        stroke="#000000"
        stroke-linecap="round"
        stroke-linejoin="round"
        stroke-width="2"
    />
    <path
        fill="none"
        stroke="#000000"
        stroke-linecap="round"
        stroke-linejoin="round"
        stroke-width="2"
        d="M11.15,20.64a3,3,0,0,0-.6.8A3,3,0,0,0,12,25.55a3.13,3.13,0,0,0,4.17-1.37A3,3,0,0,0,16.35,22"
        transform="translate(0 0.01)"
    />
</svg>
