<svg xmlns="http://www.w3.org/2000/svg" viewBox="0 0 40 32">
    <path
        fill="none"
        stroke="#000000"
        stroke-linecap="round"
        stroke-linejoin="round"
        stroke-width="2"
        d="M8.56,20.25C4.41,14.32,3.88,8.15,7.09,2.94"
    />
    <path
        fill="none"
        stroke="#000000"
        stroke-linecap="round"
        stroke-linejoin="round"
        stroke-width="2"
        d="M34.49,28.13c-4.57,4.54-13.85,3.47-20.87-2.35"
    />
    <path
        fill="none"
        stroke="#000000"
        stroke-linecap="round"
        stroke-linejoin="round"
        stroke-width="2"
        d="M27.41,26.12c-1.58,1.57-6.73-1-11.49-5.72S8.58,10.56,10.15,9"
    />
    <path
        fill="none"
        stroke="#000000"
        stroke-linecap="round"
        stroke-linejoin="round"
        stroke-width="2"
        d="M10.17,9c2.29,2,5,2.59,6.31,1.31s.58-4.41-1.8-6.77S9.25.36,7.87,1.73A10.08,10.08,0,0,0,6.08,5"
    />
    <path
        fill="none"
        stroke="#000000"
        stroke-linecap="round"
        stroke-linejoin="round"
        stroke-width="2"
        d="M34.49,28.13c1-1,.51-4.44-1.87-6.81s-5.43-3.15-6.82-1.78-.62,4.25,1.61,6.58"
    />
</svg>
