<svg version="1.1" id="Layer_1" xmlns="http://www.w3.org/2000/svg" viewBox="0 -1 32 34">
    <path
        d="M27.01,26.89c0,0-0.01,0-0.01,0L5.05,26.82c-2.76-0.01-5.01-2.27-5.02-5.04L0,12.88c0-0.55,0.44-1,1-1c0,0,0,0,0,0
		c0.55,0,1,0.45,1,1l0.03,8.91c0,1.67,1.36,3.04,3.03,3.04L27,24.89c0,0,0,0,0.01,0c0.79,0,1.54-0.31,2.11-0.88
		c0.57-0.57,0.88-1.33,0.88-2.14l-0.03-11.65c0-1.67-1.36-3.04-3.03-3.04L4.99,7.11c0,0-0.01,0-0.01,0c-0.38,0-0.75,0.07-1.1,0.21
		l12.14,7.52l8.78-4.87c0.48-0.27,1.09-0.09,1.36,0.39c0.27,0.48,0.09,1.09-0.39,1.36l-9.29,5.16c-0.32,0.18-0.71,0.17-1.01-0.02
		L1.55,8.22C1.29,8.06,1.13,7.8,1.09,7.5c-0.04-0.3,0.06-0.59,0.26-0.81c0.94-1,2.26-1.58,3.63-1.58c0,0,0.01,0,0.01,0l21.95,0.06
		c2.76,0.01,5.01,2.27,5.02,5.04L32,21.87c0,1.34-0.52,2.61-1.47,3.56C29.59,26.37,28.34,26.89,27.01,26.89z"
    />
</svg>
