<svg xmlns="http://www.w3.org/2000/svg" viewBox="0 0 40 32">
    <path
        fill="none"
        stroke="#000000"
        stroke-linecap="round"
        stroke-miterlimit="10"
        stroke-width="2"
        d="M30,14.29,28,29.23A2.16,2.16,0,0,1,25.82,31H14.18A2.16,2.16,0,0,1,12,29.23l-2.83-22A2.09,2.09,0,0,1,11.34,5h5.31"
        transform="translate(0 0.06)"
    />
    <path
        fill="none"
        stroke="#000000"
        stroke-linecap="round"
        stroke-miterlimit="10"
        stroke-width="2"
        d="M23.35,5h5.31a2.09,2.09,0,0,1,2.21,2.23L30.51,10"
        transform="translate(0 0.06)"
    />
    <path
        fill="none"
        stroke="#000000"
        stroke-linecap="round"
        stroke-miterlimit="10"
        stroke-width="2"
        d="M23.3,4.77a1.34,1.34,0,0,0,.05-.35V2.58A1.69,1.69,0,0,0,21.58,1H18.42a1.69,1.69,0,0,0-1.77,1.58V4.42a1.64,1.64,0,0,0,0,.22"
        transform="translate(0 0.06)"
    />
    <line
        x1="20"
        x2="30.04"
        y1="10.06"
        y2="10.06"
        fill="none"
        stroke="#000000"
        stroke-linecap="round"
        stroke-miterlimit="10"
        stroke-width="2"
    />
    <path
        fill="none"
        stroke="#000000"
        stroke-linecap="round"
        stroke-miterlimit="10"
        stroke-width="2"
        d="M23.35,14.29V24a2.13,2.13,0,0,1-2.23,2H18.88a2.13,2.13,0,0,1-2.23-2V12a2.13,2.13,0,0,1,2.23-2h2.24"
        transform="translate(0 0.06)"
    />
</svg>
