<svg xmlns="http://www.w3.org/2000/svg"
    xmlns:xlink="http://www.w3.org/1999/xlink" viewBox="0 0 168.5714 93.571404">
    <defs>
        <linearGradient xlink:href="#a" id="d" x1="-1510.63" x2="-1229.3556" y1="-503.65967" y2="-503.65967" gradientTransform="matrix(.20376 0 0 .20642 523.01122 469.85904)" gradientUnits="userSpaceOnUse"/>
        <linearGradient id="a">
            <stop offset="0" stop-color="#01b6ed"/>
            <stop offset="1" stop-color="#01b6ed" stop-opacity="0"/>
        </linearGradient>
        <linearGradient xlink:href="#b" id="c" x1="-1260.2056" x2="-511.09689" y1="-1732.0602" y2="-1732.0602" gradientTransform="matrix(.20376 0 0 .20642 481.53342 740.20444)" gradientUnits="userSpaceOnUse"/>
        <linearGradient id="b">
            <stop offset="0" stop-color="#01b6ed"/>
            <stop offset="1" stop-color="#01b6ed" stop-opacity="0"/>
        </linearGradient>
    </defs>
    <path fill="#afcb05" d="M68.94876 13.59222c-13.8049-4.2314-49.094-.5133-56.2954 14.5824-6.0189 14.7338 24.5635 19.5525 44.361 14.9061.061 17.7206 22.4821 40.3913 71.0241 42.021 38.0002-.6535 45.6427-28.8165 26.0519-45.2648-7.1372-5.9347-27.0646-18.6086-47.3009-18.7252-8.1938-5.7047-18.8559-9.6233-37.8407-7.5195z"/>
    <path fill="url(#c)" d="M281.82302 347.73444c-13.8048-4.2315-49.0939-.5133-56.2953 14.5824-6.0188 14.7338 24.5634 19.5525 44.3609 14.906.062 17.7207 22.4821 40.3914 71.0242 42.021 38.0003-.6534 45.6428-28.8163 26.052-45.2647-7.1372-5.9348-27.0646-18.6085-47.301-18.7251-8.1937-5.7048-18.8558-9.6235-37.8408-7.5196z" transform="translate(-212.85716 -334.14792)"/>
    <path fill="url(#d)" d="M272.52042 343.87144c-57.5434-1.6767-78.6129 35.1353-31.0798 44.1009l4.6311-4.2746c-54.6917-7.8543-16.1727-41.9774 25.9342-38.4709z" opacity=".7182541" transform="translate(-212.85716 -334.14792)"/>
    <path d="M68.1411962 26.3602766c.408422 4.9341948-7.665459 9.6102642-18.0335431 10.4442701-10.3680842.8340058-19.1041726-2.4898743-19.5125946-7.424069-.4084237-4.9342158 7.6654786-9.610287 18.0335627-10.4442929 10.3680842-.8340058 19.1041513 2.489876 19.512575 7.4240918z"/>
    <path d="M98.5381861 29.5152662c-.2128234 4.946816-8.8070768 8.5473627-19.1958244 8.0420195-10.3887477-.5053431-18.6379657-4.9252122-18.4251423-9.8720282.2128243-4.9468372 8.8070991-8.5473828 19.1958468-8.0420396 10.3887476.5053431 18.6379443 4.9252111 18.42512 9.8720483z"/>
    <path d="M78.7311353 41.333806c-1.651888 9.8481945 10.7819972 20.595439 27.7719064 24.0045998 16.9899092 3.4091608 32.1020826-1.8107474 33.7539705-11.6589419 1.651895-9.8482365-10.7820252-20.595488-27.7719344-24.0046488-16.9899092-3.4091608-32.1020475 1.8107544-33.7539425 11.658991z"/>
    <path fill="#fff" d="M91.4081683 28.0528397c0 2.8645832-5.459975 5.1868094-12.195214 5.1868094s-12.1952141-2.3222262-12.1952141-5.1868094c0-2.8646057 5.459975-5.1868094 12.195214-5.1868094 6.7352391 0 12.1952141 2.3222037 12.1952141 5.1868094zM62.295142 26.2260226c.1878516 2.8582548-5.107776 5.5428149-11.8281356 5.996106-6.7203597.4532911-12.320558-1.4963409-12.5084096-4.3545957-.187853-2.8582773 5.107776-5.5428149 11.8281356-5.996106 6.7203597-.4532911 12.3205564 1.4963184 12.5084096 4.3545957zm66.6993201 22.5084314c-.5780103 6.3588659-10.7096964 9.7344647-22.6297814 7.5395425-11.920085-2.1949222-21.1146221-9.1291832-20.5366118-15.488049.5780149-6.358916 10.7096964-9.7344648 22.6297815-7.5395426 11.920085 2.1949221 21.1146266 9.1291331 20.5366117 15.488049z"/>
</svg>
