<svg xmlns="http://www.w3.org/2000/svg" viewBox="0 0 652 652">
    <path fill="#ffffff" d="M595.2 411.2h-12.9l.9-1.8c2.1-4.2 4.3-5.6 9.1-5.6h6.6c-1.3 2.5-2.5 5-3.7 7.4zm-13.9 28.6c3.9-7.9 7.9-15.8 11.8-23.8h-12.9c-3.4 6.8-6.8 13.7-10.2 20.5-1.1 2.3-2.7 3.3-5.4 3.3h-31.2c4.2-8.5 8.4-16.9 12.6-25.4 1.8-3.6 2.5-3.8 6.6-3.8h3.7c3.6 0 5.4-1 6.8-3.9.6-1.2 1.2-2.3 1.7-3.5h-13.3c1.9-3.8 3.8-7.7 5.7-11.5h-8.4c-3.7 0-5.4 1-6.8 3.8-1.3 2.6-2.5 5.1-3.8 7.7h-7c-1.2 2.5-2.4 4.9-3.7 7.4h7c-1.4 2.9-11.5 23.1-12.9 26-1.1 2.3-2.7 3.2-5.4 3.2h-27.7c4.9-9 9.8-18 14.8-27h-10.2c-2.4 0-3.4.8-4.9 2.6 0-1.9-.7-2.6-2.6-2.6h-7.1c-11.6 0-18.1 3.6-23.1 12.8-2 3.7-4 7.3-6 11-1.3 2.3-2.8 3.2-5.4 3.2h-17.9c-6.5 0-9-.9-9.7-4.3-.8-3.7.9-6.6 9.5-12.4 1.6-1.1 3.3-2.2 4.9-3.3 2.3-1.5 3.2-2.3 2.9-3.9-.3-1.5-1.2-3.1-8.2-3.1h-33.6c-3.6 0-5.2.9-6.8 3.9-3.6 6.6-7.3 13.3-10.9 19.9-1.2 2.3-2.8 3.2-5.4 3.2h-54c.8-2.3 1.5-4.5 2.3-6.8H344c5.3 0 7.5-1.4 9.4-5.9.9-2 1.7-4 2.6-6.1.6-1.5 1.2-3.7.1-5.3-1.3-1.9-4.5-2.9-9.4-2.9h-25.9c-8.3 0-12 2.3-15 9.1-1.8 4.2-3.6 8.4-5.4 12.7-1.8 4.3-4.7 5.2-8.8 5.2h-18.5c.4-.6.8-1.2 1.2-1.7 3.7-5.5 3-11.6-1.9-16.8-4.8-5.1-11.2-6.9-16.8-8.4h-14.4c-3.3 6-6.6 12.1-9.9 18.1-4.1 7.5-8.6 8.9-16.5 8.9h-17.4c4.9-9 9.8-18 14.8-27H202c-2.4 0-3.4.8-4.9 2.6 0-1.9-.7-2.6-2.6-2.6h-7c-11.6 0-18.1 3.6-23.1 12.8-2 3.7-4 7.3-6 11-1.3 2.3-2.8 3.2-5.4 3.2h-26.5c7.5-13.7 15-27.4 22.5-41.2 1.3-2.4-.4-5.3-3.2-5.3H40.4c-7.2 0-10.7 1.8-14.1 7.6h45.6c-8.5 15.5-16.9 31-25.4 46.4h13.1c8.5-15.5 16.9-31 25.4-46.4h18.2c-8.5 15.5-16.9 30.9-25.4 46.4h13.1c8.5-15.5 16.9-30.9 25.4-46.4h18.3c-7 12.8-14 25.5-21 38.3-1 1.8-1.9 4.2-.9 5.9.8 1.4 3 2.2 6.2 2.2h34.6c1.7 0 2.4-.6 3.5-1.8 0 1.4 1.2 1.8 2.5 1.8H219c11.8 0 18.1-3.4 23.1-12.7 2.6-4.8 5.2-9.5 7.8-14.3.1 0 .7.1.8.2 9.4 1.8 14.1 5.3 14.5 10.6.2 2.2-.5 4.2-2 5.8-1.7 1.9-4.4 3-7.4 3-6 0-8.4 2.3-10.7 7.5h50.3c1.7 0 2.4-.6 3.5-1.8 0 1.4 1.2 1.8 2.5 1.8h74.5c5 0 7.2-1.3 9.7-5.9l8.7-15.9c2-3.6 4.5-5.1 8.8-5.1h13.1c-2.2 1.5-4.7 3.5-6.6 5.4-2.5 2.6-4.9 6.1-5.3 10.7-.3 3.2.5 5.9 2.3 7.9 1.7 1.9 4.3 2.9 7.4 2.9h30.6c1.7 0 2.4-.6 3.5-1.8 0 1.4 1.2 1.8 2.5 1.8H515c1.7 0 2.4-.6 3.5-1.8 0 1.4 1.2 1.8 2.5 1.8h95.2c5.7 0 8.6-1.9 9.7-6.2.1-.4.2-.9.3-1.3-14.9-.2-29.9-.2-44.9-.2zm-260.9-16c1.3-3.7 4.3-4 7-4h14.7c-.3 1-.7 2-1 3-1.2 3.5-3.9 3.8-6.3 3.8h-15.3c.3-.9.6-1.8.9-2.8zm-133.4 11c-2 3.7-4.4 5.1-8.8 5.1h-7.3c2.6-4.8 5.2-9.6 7.8-14.3 2-3.6 4.5-5.1 8.8-5.1h7.2c-2.5 4.7-5.1 9.5-7.7 14.3zm291.1 0c-2 3.7-4.4 5.1-8.8 5.1H462c2.6-4.8 5.2-9.6 7.8-14.3 2-3.6 4.5-5.1 8.8-5.1h7.2c-2.5 4.7-5.1 9.5-7.7 14.3zm-163.6-70.3v-6.6h33.8v6.6h-33.8zm16.9 13.7H342V368h-21.2v10.2h10.6m-10.6-23.7c0-5.7-1.5-11.2-6-14.9h33.4c-4.5 3.8-6 9.3-6 14.9h-21.4zm-28.2-25.8v-4.9h77.6v4.9h-77.6zm3.4 17.6c4.5-1 9.4-3.5 12.7-6.7h-13.5c.3 2.2.6 4.4.8 6.7zm70.8 0c-4.5-1-9.4-3.5-12.7-6.7h13.5c-.3 2.2-.5 4.4-.8 6.7zm-75.5-33.1c-4.3-25.2-12.5-51.5-21.5-68.7 9.7 5.3 20.1 13.6 31.3 25.1-4.6-1.2-9.3-2.2-13.9-2.9 6.5 15.3 11.8 30.9 16.6 46.6-4.2-.1-8.4-.1-12.5-.1zm80.3 0c4.3-25.2 12.5-51.5 21.5-68.7-9.7 5.3-20.1 13.6-31.3 25.1 4.6-1.2 9.3-2.2 13.9-2.9-6.5 15.3-11.8 30.9-16.6 46.6 4.1-.1 8.3-.1 12.5-.1zm-83.2 8.1v-4.9h86v4.9h-86zm28.5-79.5c6.6-11.4 12.3-24.4 14.5-37.8 2.2 13.4 7.8 26.4 14.5 37.8-2.4-1.1-4.9-2.2-7.6-3.4-2.4-1.1-3.4-.4-3.3 2 .8 24.2 4.4 51.8 17 72.8h-14.9c-2.3-5.6-4.2-11.1-5.6-16.5-1.4 5.4-3.3 11-5.6 16.5H311c12.7-21 16.2-48.6 17-72.8.1-2.5-.9-3.1-3.3-2-2.9 1.2-5.4 2.3-7.8 3.4zm-28.5 94.4v-4.9h86v4.9h-86z"/>
</svg>
