<svg xmlns="http://www.w3.org/2000/svg" xml:space="preserve" viewBox="0 0 512 512">
  <path fill="#1a1a1a" d="M301.39 184.75c-15.51-7.42-29.54-9.85-46.13-9.85-15.11 0-30.89 3.24-45.32 9.31-14.97-5.13-50.71-2.02-58.54-1.89-8.9.27-45.99-2.02-54.76-2.02s-26.84.27-40.46 1.21c-20.77 1.35-44.24-.54-47.07-1.35-1.35-.27-2.43.54-2.43.54-.67.81-6.88 7.82-6.88 7.82l.67 2.02 14.84 7.42-2.02 9.71 14.43 6.47s0 8.09.81 9.04c.81 1.08 15.24 4.59 15.24 4.59s1.48 9.44 2.43 10.25c1.75 1.48 16.86 2.97 16.86 2.97s4.72 8.5 6.74 9.31c2.02.81 18.34 3.24 21.31 2.43 0 0 1.35 7.01 4.18 8.36 3.1 1.35 20.77.81 20.77.81s2.16 6.88 5.66 7.96c3.24.94 18.75-2.97 18.75-2.97s2.29 5.13 4.45 6.07c3.37 1.35 15.78-2.97 15.78-2.97 6.34 26.03 27.65 44.51 52.74 54.09l3.51 7.01 8.23-3.1 4.32 6.47 7.55-4.05 5.13 6.2 6.74-4.86 5.93 5.53 5.93-5.66 6.74 4.86 5.13-6.2 7.55 4.05 4.32-6.47 8.23 3.1 3.37-7.01c23.2-8.9 44.78-27.52 51.79-50.98 2.16.94 6.34 2.29 9.71 2.56 0 0 3.91-1.35 5.53-6.2 0 0 13.49 4.18 15.92 3.37 0 0 2.29-.13 4.32-6.88 1.35.67 2.56.27 4.59.67 10.52 2.29 15.11 1.08 15.11 1.08s2.29-.4 4.18-9.17c.94.13 1.62.27 2.29.27 0 0 15.65.4 18.34-.94 0 0 2.43-.67 3.37-9.44 6.47.94 12.27 1.35 16.86.81 0 0 5.26-1.75 7.28-12 3.51-.27 14.03-.94 15.24-2.43 0 0 2.56-1.21 2.56-10.39 4.05-.27 10.66-1.08 13.08-3.64 0 0 2.56-2.83 1.48-9.85 9.58-2.02 12.95-5.13 12.95-5.13 0-3.37-3.1-9.58-3.1-9.58s10.79-4.05 13.35-6.2l.81-1.48s-6.47-7.69-7.55-7.96c-2.29-.54-23.2 2.56-36.69 2.56-13.49 0-37.77-2.02-47.88-2.02-9.98 0-41.27 2.29-55.97 2.29s-20.37-2.29-31.29-2.29c-6.06-.01-21.57.4-31.01 3.77"/>
  <path d="M193.62 253.13c0-25.22 27.25-45.59 60.97-45.59s60.97 20.37 60.97 45.59-27.25 45.59-60.97 45.59c-33.59 0-60.97-20.36-60.97-45.59z"/>
  <path fill="#c4c4c4" d="M254.59 299.13c-33.85 0-61.23-20.64-61.23-45.99s27.52-45.99 61.23-45.99c33.85 0 61.37 20.64 61.37 45.99s-27.52 45.99-61.37 45.99zm0-91.32c-33.45 0-60.56 20.23-60.56 45.18s27.11 45.32 60.56 45.32 60.56-20.37 60.56-45.32c0-24.81-27.11-45.18-60.56-45.18z"/>
  <path fill="#fff" d="M250 216.45c-.54.27-1.35.13-1.89.13-2.43.27-4.99.67-7.28 1.08-6.88 1.21-13.62 3.91-19.15 7.82-1.48.94-3.1 2.02-4.18 3.51 0 0 0 .13-.13.13-.4.67-1.08 1.21-1.35 1.89-.13.27-.27.81-.13 1.08.4 1.08 2.43 2.97 3.51 3.51.54.27 1.35.94 1.48 1.48.13.94-.13 1.89-.13 2.7v30.21c-.13.54-2.16 2.29-2.56 2.83-.67.67-.94 1.62-1.48 2.29v.13c.27.27.27.81.4 1.08.54.94 1.62 2.02 2.56 2.7 7.69 5.93 19.29 9.31 29.54 10.12 4.05.27 8.23 0 12.41 0 .4-.4 2.97-.4 3.64-.4.27-.27 2.16-.4 2.7-.4.4-.4 1.48-.4 2.02-.4.27-.27.54-.27.94-.27.27-.4 1.08-.4 1.62-.4.27-.27.94-.4 1.21-.4.27-.27.81-.4 1.21-.4.27-.27.94-.4 1.21-.4.4-.4 1.48-.67 2.02-.67.27-.4.81-.4 1.21-.67.94-.54 2.02-.94 2.97-1.48 3.51-2.02 6.47-4.72 8.36-8.23.4-.67.81-1.35.81-2.16.27-.27.4-.81.4-1.21.4-.4.4-1.35.4-2.02.4-.54.27-2.02.27-2.83-.13-7.01-5.53-13.62-11.73-16.32-.13 0-.4 0-.4-.27.4-.27 1.08-.94 1.62-.94.4-.67 1.89-1.21 2.56-1.89 1.48-1.21 4.86-4.59 4.86-6.34.27-.27.4-.54.4-.94.27-.27.4-.81.4-1.21.54-.54.4-1.89.4-2.7.4-.54.13-1.62 0-2.16-.67-3.37-2.02-6.07-4.32-8.5-.54-.54-1.08-.94-1.62-1.48-1.62-1.62-3.78-2.7-5.8-3.78-5.66-2.83-12.14-4.32-19.02-4.59-3.35.77-6.59.77-9.96.77zm3.51 6.07c3.91 0 7.69.27 10.66 2.02 4.59 2.7 5.93 8.23 5.26 13.49-.4 3.1-1.48 6.2-3.91 8.23-2.29 2.02-5.4 2.56-8.5 2.97-7.01.94-14.3-1.48-16.32-8.23-.54-1.62-.81-3.37-.94-5.13 0-.94.13-1.75.13-2.7.27-.27.4-1.21.4-1.62.27-.27.4-.67.4-1.08.13-.13.4-.54.4-.81.13-.13.27-.27.27-.54.4-.27 1.08-1.35 1.08-1.89.54-.27.81-.94 1.35-1.35 1.21-1.08 3.51-2.56 5.26-2.56.13-.13.4-.27.67-.27.4-.4 1.48-.4 2.02-.4.15-.27 1.23.13 1.77-.13zm-.95 32.1c4.72 0 8.9.13 12.68 1.75 7.96 3.64 8.77 16.86 3.24 22.79-4.05 4.45-12.68 5.13-18.61 3.64-1.35-.4-2.7-.67-3.91-1.35-1.62-.94-2.83-2.02-3.91-3.64-1.48-2.16-2.43-5.13-2.56-7.82-.13-1.62.13-3.1.13-4.59.27-.27.4-.94.4-1.35.27-.27.4-.81.4-1.08.27-.13.4-.54.4-.81.27-.27.54-.81.54-1.08.67-.4 1.08-1.35 1.48-2.02.54-.67 2.56-2.43 3.37-2.43.27-.4 1.08-.67 1.62-.67.27-.27.81-.4 1.08-.4.27-.27.94-.4 1.48-.4.42-.41 1.63 0 2.17-.54z"/>
  <radialGradient id="a" cx="254.6535" cy="260.8673" r="54.1913" gradientTransform="matrix(1 0 0 -1 0 514)" gradientUnits="userSpaceOnUse">
    <stop offset="0" stop-color="#fff"/>
    <stop offset="1" stop-color="#e6e6e6"/>
  </radialGradient>
  <path fill="url(#a)" d="M254.59 299.13c-33.85 0-61.23-20.64-61.23-45.99s27.52-45.99 61.23-45.99c33.85 0 61.37 20.64 61.37 45.99s-27.52 45.99-61.37 45.99zm0-91.32c-33.45 0-60.56 20.23-60.56 45.18s27.11 45.32 60.56 45.32 60.56-20.37 60.56-45.32c0-24.81-27.11-45.18-60.56-45.18z"/>
  <linearGradient id="b" x1="22.5782" x2="135.6069" y1="307.8677" y2="307.8677" gradientTransform="matrix(1 0 0 -1 0 514)" gradientUnits="userSpaceOnUse">
    <stop offset="0" stop-color="#fff"/>
    <stop offset=".3637" stop-color="#ccc"/>
    <stop offset=".5278" stop-color="#e1e1e1"/>
    <stop offset=".7435" stop-color="#f7f7f7"/>
    <stop offset=".8828" stop-color="#fff"/>
    <stop offset="1" stop-color="#b3b3b3"/>
  </linearGradient>
  <path fill="url(#b)" d="M24.48 200.8c-1.21.4-1.75 1.08-1.89 2.29-.13.94.54 3.1 2.97 4.32 1.62.81 7.96 3.64 9.58 4.05 1.48.27 95.9-5.13 96.17-5.13 1.21-.54 4.72-1.48 4.45-3.51-.13-.54-.94-1.08-1.48-1.35-1.08-.4-12.68.67-13.62.67-8.24-.13-94.02-1.34-96.18-1.34"/>
  <linearGradient id="c" x1="137.6351" x2="156.4799" y1="307.89" y2="307.89" gradientTransform="matrix(1 0 0 -1 0 514)" gradientUnits="userSpaceOnUse">
    <stop offset="0" stop-color="#fff"/>
    <stop offset=".3637" stop-color="#ccc"/>
    <stop offset=".5278" stop-color="#e1e1e1"/>
    <stop offset=".7435" stop-color="#f7f7f7"/>
    <stop offset=".8828" stop-color="#fff"/>
    <stop offset="1" stop-color="#b3b3b3"/>
  </linearGradient>
  <path fill="url(#c)" d="M152.89 202.15c-3.24.94-6.74 1.48-10.12 2.16-1.35.27-3.1.27-4.18 1.08-.54.4-.81.81-.94 1.48-.13.54 0 1.21.27 1.62.54.54 3.64 1.89 5.8 1.62 3.24-.81 6.07-1.75 9.17-2.83 1.08-.27 2.43-.54 3.24-1.35.81-.94.27-1.89-.4-2.7-.68-.81-1.76-1.35-2.84-1.08"/>
  <linearGradient id="d" x1="143.7715" x2="161.5531" y1="299.1234" y2="299.1234" gradientTransform="matrix(1 0 0 -1 0 514)" gradientUnits="userSpaceOnUse">
    <stop offset="0" stop-color="#fff"/>
    <stop offset=".3637" stop-color="#ccc"/>
    <stop offset=".5278" stop-color="#e1e1e1"/>
    <stop offset=".7435" stop-color="#f7f7f7"/>
    <stop offset=".8828" stop-color="#fff"/>
    <stop offset="1" stop-color="#b3b3b3"/>
  </linearGradient>
  <path fill="url(#d)" d="M157.07 209.7c-3.1.67-5.93 1.89-8.9 2.97-1.21.4-2.83.67-3.78 1.62-.54.54-.67 1.35-.54 2.16.13.54.4 1.35.81 1.89.81.94 2.83 1.75 4.32 1.75.81 0 2.02-.27 2.56-.4 2.29-1.21 4.59-2.43 7.01-3.78.81-.4 1.75-.54 2.43-1.21 2.16-2.3-2.02-5.4-3.91-5"/>
  <linearGradient id="e" x1="35.9971" x2="138.995" y1="296.5428" y2="296.5428" gradientTransform="matrix(1 0 0 -1 0 514)" gradientUnits="userSpaceOnUse">
    <stop offset="0" stop-color="#fff"/>
    <stop offset=".3637" stop-color="#ccc"/>
    <stop offset=".5278" stop-color="#e1e1e1"/>
    <stop offset=".7435" stop-color="#f7f7f7"/>
    <stop offset=".8828" stop-color="#fff"/>
    <stop offset="1" stop-color="#b3b3b3"/>
  </linearGradient>
  <path fill="url(#e)" d="M133.6 210.11c-2.16.27-17.67 1.75-23.47 2.02-3.1.27-56.11 3.51-60.7 3.51-.81 0-12 0-13.22.94-.54.54 0 3.51.67 4.05 1.08 1.08 3.1 1.35 4.45 1.75 4.18 1.08 7.82 2.43 12.54 2.43.27 0 83.22-10.52 84.7-10.52.27-.27.4-.4.4-.67 0-.81-2.97-2.97-3.64-3.37-.52-.14-1.06-.14-1.73-.14"/>
  <linearGradient id="f" x1="52.0959" x2="141.5141" y1="286.2519" y2="286.2519" gradientTransform="matrix(1 0 0 -1 0 514)" gradientUnits="userSpaceOnUse">
    <stop offset="0" stop-color="#fff"/>
    <stop offset=".3637" stop-color="#ccc"/>
    <stop offset=".5278" stop-color="#e1e1e1"/>
    <stop offset=".7435" stop-color="#f7f7f7"/>
    <stop offset=".8828" stop-color="#fff"/>
    <stop offset="1" stop-color="#b3b3b3"/>
  </linearGradient>
  <path fill="url(#f)" d="M132.39 218.74c-4.59.81-9.31 1.62-13.89 2.43-7.28 1.35-36.15 5.53-43.16 6.34-4.59.54-9.17 1.08-13.89 1.35-8.63-.4-10.12.94-9.04 3.24.4.94.94 2.29 1.89 2.97 1.21.81 10.79 2.83 14.43 2.83 4.45.13 24.28-2.97 27.52-3.78 5.13-1.21 43.84-11.6 44.91-12.14.81-.54.13-2.83-.81-4.05-.82-.94-5.81.4-7.96.81"/>
  <linearGradient id="g" x1="151.8277" x2="169.0895" y1="290.4771" y2="290.4771" gradientTransform="matrix(1 0 0 -1 0 514)" gradientUnits="userSpaceOnUse">
    <stop offset="0" stop-color="#fff"/>
    <stop offset=".3637" stop-color="#ccc"/>
    <stop offset=".5278" stop-color="#e1e1e1"/>
    <stop offset=".7435" stop-color="#f7f7f7"/>
    <stop offset=".8828" stop-color="#fff"/>
    <stop offset="1" stop-color="#b3b3b3"/>
  </linearGradient>
  <path fill="url(#g)" d="M163.68 217.79c-1.35 0-10.79 5.93-11.46 6.74-.4.54-.4 1.35-.27 2.02.13.54.4 1.21.81 1.62 1.08 1.08 3.37 1.08 4.86 1.08.4-.13.81-.27 1.21-.54.81-.4 1.48-1.21 2.29-1.75 1.62-1.21 2.83-2.16 4.45-3.51.81-.54 2.7-1.08 3.24-1.89 1.34-2.28-3.51-3.9-5.13-3.77"/>
  <linearGradient id="h" x1="161.9028" x2="177.5571" y1="283.5345" y2="283.5345" gradientTransform="matrix(1 0 0 -1 0 514)" gradientUnits="userSpaceOnUse">
    <stop offset="0" stop-color="#fff"/>
    <stop offset=".3637" stop-color="#ccc"/>
    <stop offset=".5278" stop-color="#e1e1e1"/>
    <stop offset=".7435" stop-color="#f7f7f7"/>
    <stop offset=".8828" stop-color="#fff"/>
    <stop offset="1" stop-color="#b3b3b3"/>
  </linearGradient>
  <path fill="url(#h)" d="M172.04 224.4c-1.35 0-5.53 4.18-7.01 5.4-.67.54-2.56 2.16-2.83 2.97-.67 1.75.4 2.56 1.48 3.37s4.18.27 5.53-.81c1.08-.81 7.55-6.61 7.96-7.28 1.88-3.24-2.97-3.65-5.13-3.65"/>
  <linearGradient id="i" x1="72.4985" x2="148.7923" y1="277.3235" y2="277.3235" gradientTransform="matrix(1 0 0 -1 0 514)" gradientUnits="userSpaceOnUse">
    <stop offset="0" stop-color="#fff"/>
    <stop offset=".3637" stop-color="#ccc"/>
    <stop offset=".5278" stop-color="#e1e1e1"/>
    <stop offset=".7435" stop-color="#f7f7f7"/>
    <stop offset=".8828" stop-color="#fff"/>
    <stop offset="1" stop-color="#b3b3b3"/>
  </linearGradient>
  <path fill="url(#i)" d="M145.74 224.4c-.54.13-1.08.27-1.62.4-1.48.67-35.47 11.06-51.66 14.43-4.59.94-9.31 1.62-14.16 2.29-1.48.27-4.59 0-5.66.81-.67.54 1.35 3.64 1.89 4.59 1.48 2.16 18.07 2.83 25.49.81 2.97-.81 47.21-16.19 48.02-17.26.94-1.21.67-4.05.54-4.59-.14-1.34-1.49-1.48-2.84-1.48"/>
  <linearGradient id="j" x1="172.4052" x2="185.5706" y1="278.0042" y2="278.0042" gradientTransform="matrix(1 0 0 -1 0 514)" gradientUnits="userSpaceOnUse">
    <stop offset="0" stop-color="#fff"/>
    <stop offset=".3637" stop-color="#ccc"/>
    <stop offset=".5278" stop-color="#e1e1e1"/>
    <stop offset=".7435" stop-color="#f7f7f7"/>
    <stop offset=".8828" stop-color="#fff"/>
    <stop offset="1" stop-color="#b3b3b3"/>
  </linearGradient>
  <path fill="url(#j)" d="M180.13 230.47c-1.08.67-2.43 2.29-3.24 3.24-.67.67-1.21 1.35-1.89 2.02-1.21 1.21-3.91 3.51-1.62 4.99.94.67 2.56 1.21 3.51.94.81-.4 1.62-.4 2.29-1.08.67-.54 1.21-1.48 1.62-2.29.54-.81 2.43-3.51 2.97-3.91.94-.81 2.43-1.48 1.48-3.24-.4-.67-4.04-1.21-5.12-.67"/>
  <linearGradient id="k" x1="98.1884" x2="159.0376" y1="268.2737" y2="268.2737" gradientTransform="matrix(1 0 0 -1 0 514)" gradientUnits="userSpaceOnUse">
    <stop offset="0" stop-color="#fff"/>
    <stop offset=".3637" stop-color="#ccc"/>
    <stop offset=".5278" stop-color="#e1e1e1"/>
    <stop offset=".7435" stop-color="#f7f7f7"/>
    <stop offset=".8828" stop-color="#fff"/>
    <stop offset="1" stop-color="#b3b3b3"/>
  </linearGradient>
  <path fill="url(#k)" d="M151.81 233.31c-2.16.13-10.12 4.59-13.35 5.93-8.9 3.78-18.07 6.88-27.38 9.98-2.43.67-4.86 1.48-7.42 2.16-1.48.4-3.37.67-4.72 1.48-.4.27-.81.54-.81 1.08-.13.81.54 1.48 1.08 1.89.67.54 1.35 1.08 2.16 1.35 1.35.4 2.83.4 4.32.54 3.51.13 10.52 1.21 14.97-.67 4.18-1.75 21.85-11.06 26.57-13.49 2.16-1.21 11.87-5.66 11.73-7.42-.14-2.83-4.59-2.83-7.15-2.83"/>
  <linearGradient id="l" x1="122.6547" x2="169.1125" y1="261.1207" y2="261.1207" gradientTransform="matrix(1 0 0 -1 0 514)" gradientUnits="userSpaceOnUse">
    <stop offset="0" stop-color="#fff"/>
    <stop offset=".3637" stop-color="#ccc"/>
    <stop offset=".5278" stop-color="#e1e1e1"/>
    <stop offset=".7435" stop-color="#f7f7f7"/>
    <stop offset=".8828" stop-color="#fff"/>
    <stop offset="1" stop-color="#b3b3b3"/>
  </linearGradient>
  <path fill="url(#l)" d="M161.25 240.45c-1.62.4-38.04 20.1-38.44 21.04-.81 1.35 1.75 3.51 3.1 3.91 2.02.4 13.08-.67 17.8-3.37 1.35-1.08 17.8-13.89 19.15-14.84 1.62-1.35 6.74-3.91 6.2-5.13-.66-1.47-6.19-2.15-7.81-1.61"/>
  <linearGradient id="m" x1="146.3042" x2="180.187" y1="256.8893" y2="256.8893" gradientTransform="matrix(1 0 0 -1 0 514)" gradientUnits="userSpaceOnUse">
    <stop offset="0" stop-color="#fff"/>
    <stop offset=".3637" stop-color="#ccc"/>
    <stop offset=".5278" stop-color="#e1e1e1"/>
    <stop offset=".7435" stop-color="#f7f7f7"/>
    <stop offset=".8828" stop-color="#fff"/>
    <stop offset="1" stop-color="#b3b3b3"/>
  </linearGradient>
  <path fill="url(#m)" d="M171.5 245.44c-.94-.13-6.74 7.01-20.64 16.59-1.21.81-3.91 2.56-4.45 3.78-.81 2.29 3.1 2.97 4.59 2.97.27 0 7.82-.94 11.33-2.97 1.62-.94 17.13-16.32 17.67-16.99.27-.27.4-1.89.27-2.02-.81-1.21-3.37-.4-4.86-.54-1.21-.41-2.83-.68-3.91-.82"/>
  <linearGradient id="n" x1="167.6904" x2="214.0382" y1="217.4889" y2="217.4889" gradientTransform="matrix(1 0 0 -1 0 514)" gradientUnits="userSpaceOnUse">
    <stop offset="0" stop-color="#fff"/>
    <stop offset=".3637" stop-color="#ccc"/>
    <stop offset=".5278" stop-color="#e1e1e1"/>
    <stop offset=".7435" stop-color="#f7f7f7"/>
    <stop offset=".8828" stop-color="#fff"/>
    <stop offset="1" stop-color="#b3b3b3"/>
  </linearGradient>
  <path fill="url(#n)" d="M168.13 275.25c-.67.27-.4 1.35-.27 1.89.27.94 4.32 7.55 6.2 10.12 1.48 2.29 2.97 4.59 4.86 6.61 6.88 7.96 15.24 15.11 24.14 19.69 1.35.67 8.77 4.45 10.52 4.32.4 0 .54-.4.4-.54-.13-.4-.54-.67-.81-.94-1.75-.81-3.37-1.62-5.13-2.43-2.97-1.35-5.8-2.97-8.5-4.72-6.47-4.18-12.41-9.04-17.8-14.97-2.43-2.7-4.18-5.53-6.47-8.77-2.16-3.1-4.99-8.63-5.66-9.85-.4-.41-.94-.68-1.48-.41"/>
  <linearGradient id="o" x1="135.6591" x2="153.3439" y1="315.6072" y2="315.6072" gradientTransform="matrix(1 0 0 -1 0 514)" gradientUnits="userSpaceOnUse">
    <stop offset="0" stop-color="#fff"/>
    <stop offset=".3637" stop-color="#ccc"/>
    <stop offset=".5278" stop-color="#e1e1e1"/>
    <stop offset=".7435" stop-color="#f7f7f7"/>
    <stop offset=".8828" stop-color="#fff"/>
    <stop offset="1" stop-color="#b3b3b3"/>
  </linearGradient>
  <path fill="url(#o)" d="M153.29 198.1c.13 1.62-6.88 1.62-8.63 1.75-2.43.27-6.47 1.89-7.82.4-.94-1.08-2.29-4.32-.27-4.32 2.83-.13 4.99.13 8.23.27 3.37.28 8.36-.39 8.49 1.9"/>
  <linearGradient id="p" x1="155.6818" x2="197.8146" y1="300.6888" y2="300.6888" gradientTransform="matrix(1 0 0 -1 0 514)" gradientUnits="userSpaceOnUse">
    <stop offset="0" stop-color="#fff"/>
    <stop offset=".3637" stop-color="#ccc"/>
    <stop offset=".5278" stop-color="#e1e1e1"/>
    <stop offset=".7435" stop-color="#f7f7f7"/>
    <stop offset=".8828" stop-color="#fff"/>
    <stop offset="1" stop-color="#b3b3b3"/>
  </linearGradient>
  <path fill="url(#p)" d="M157.47 197.16c-.94 0-1.62.13-1.75 1.08-.13 1.08 0 2.83 1.89 2.83 2.16 0 4.86-2.83 6.07-1.08 1.48 2.02-6.07 3.24-4.86 5.8 1.48 3.24 4.59.27 5.13.13 1.48-.67 6.2-4.86 8.09-2.16 1.75 2.43-6.07 5.93-7.01 7.01-.27.27-.81 2.16-.54 2.56 1.75 3.64 5.93.13 8.77-2.97 1.08-1.21 1.89-1.75 2.83-2.02 1.48-.4 2.7-.13 3.1 1.21.27.67 0 1.62-.54 2.16s-7.28 5.26-7.01 6.74c.4 2.83 2.16 3.24 3.51 2.7 1.35-.67 5.26-7.15 7.55-6.34.67.27 1.35.27 1.62.94.4.81.27 1.89-.27 2.56-.67.81-1.89 2.02-2.7 2.7-.67.67-1.48 1.35-1.89 2.02-1.08 1.89.54 2.83 2.29 2.83.67 0 .94-.4 1.35-.67 1.08-.94 2.16-4.99 4.45-3.91s-2.02 4.32-1.48 6.61c.67 1.75 3.37 2.02 4.18.81.81-2.02.4-5.26 1.21-8.77.81-3.24 3.1-8.09 4.32-9.98.67-1.08 1.62-2.02 1.89-3.37v-.27c.13-1.48-.67-2.56-1.75-3.51-1.62-1.48-3.78-2.29-5.8-2.97-5.93-1.89-12.27-2.16-19.02-2.43-4.32-.11-8.91-.24-13.63-.24"/>
  <linearGradient id="q" x1="166.267" x2="187.5726" y1="254.5824" y2="254.5824" gradientTransform="matrix(1 0 0 -1 0 514)" gradientUnits="userSpaceOnUse">
    <stop offset="0" stop-color="#fff"/>
    <stop offset=".3637" stop-color="#ccc"/>
    <stop offset=".5278" stop-color="#e1e1e1"/>
    <stop offset=".7435" stop-color="#f7f7f7"/>
    <stop offset=".8828" stop-color="#fff"/>
    <stop offset="1" stop-color="#b3b3b3"/>
  </linearGradient>
  <path fill="url(#q)" d="M180.4 252.46c1.75-2.29 3.91-4.32 6.07-4.05.54 0 .81.13 1.08.4-.13 1.35-.27 2.7-.27 4.18v.8c-.54 2.16-.81 1.62-2.29 4.32-2.16 4.18-4.59 10.12-5.93 10.66-2.02.94-5.13.81-7.42 1.35-3.24.81-5.53 0-5.53-1.48.13-1.75 13.08-14.29 14.29-16.18"/>
  <linearGradient id="r" x1="173.2082" x2="225.3264" y1="221.7344" y2="221.7344" gradientTransform="matrix(1 0 0 -1 0 514)" gradientUnits="userSpaceOnUse">
    <stop offset="0" stop-color="#fff"/>
    <stop offset=".3637" stop-color="#ccc"/>
    <stop offset=".5278" stop-color="#e1e1e1"/>
    <stop offset=".7435" stop-color="#f7f7f7"/>
    <stop offset=".8828" stop-color="#fff"/>
    <stop offset="1" stop-color="#b3b3b3"/>
  </linearGradient>
  <path fill="url(#r)" d="M181.35 272.02c1.89.13 2.43 2.7 4.72 3.24 1.35.27 3.1-.4 4.18-1.08.67-.4 1.75-1.21 2.7-1.08 6.34 11.06 17.94 20.1 32.37 25.36 0 0 0 .13.13.13.13.54 0 1.08-.27 1.21-.81.81-8.09 12.27-9.58 12.68-1.35.4-6.34-2.7-8.23-3.78-9.58-5.13-18.61-12-25.63-20.91-2.16-2.83-8.5-9.98-8.36-12.95-.13-2.02 6.75-2.82 7.97-2.82"/>
  <linearGradient id="s" x1="181.6718" x2="192.784" y1="274.3636" y2="274.3636" gradientTransform="matrix(1 0 0 -1 0 514)" gradientUnits="userSpaceOnUse">
    <stop offset="0" stop-color="#fff"/>
    <stop offset=".3637" stop-color="#ccc"/>
    <stop offset=".5278" stop-color="#e1e1e1"/>
    <stop offset=".7435" stop-color="#f7f7f7"/>
    <stop offset=".8828" stop-color="#fff"/>
    <stop offset="1" stop-color="#b3b3b3"/>
  </linearGradient>
  <path fill="url(#s)" d="M189.03 233.31c1.08-.27 3.37-1.08 3.78 0-2.43 4.18-4.05 8.5-4.86 13.08-.81.54-2.97-.81-5.26-1.62-2.97-1.21 1.48-3.78 3.1-6.07.82-1.35 2.17-4.59 3.24-5.39"/>
  <linearGradient id="t" x1="183.9831" x2="191.572" y1="248.9147" y2="248.9147" gradientTransform="matrix(1 0 0 -1 0 514)" gradientUnits="userSpaceOnUse">
    <stop offset="0" stop-color="#fff"/>
    <stop offset=".3637" stop-color="#ccc"/>
    <stop offset=".5278" stop-color="#e1e1e1"/>
    <stop offset=".7435" stop-color="#f7f7f7"/>
    <stop offset=".8828" stop-color="#fff"/>
    <stop offset="1" stop-color="#b3b3b3"/>
  </linearGradient>
  <path fill="url(#t)" d="M187.69 258.12c.67 4.32 1.89 8.5 3.91 12.54-.4.81-4.86 2.43-7.28.4-1.35-1.61 1.75-13.07 3.37-12.94"/>
  <linearGradient id="u" x1="9.641" x2="218.5099" y1="307.6863" y2="307.6863" gradientTransform="matrix(1 0 0 -1 0 514)" gradientUnits="userSpaceOnUse">
    <stop offset="0" stop-color="#fff"/>
    <stop offset=".3637" stop-color="#ccc"/>
    <stop offset=".5278" stop-color="#e1e1e1"/>
    <stop offset=".7435" stop-color="#f7f7f7"/>
    <stop offset=".8828" stop-color="#fff"/>
    <stop offset="1" stop-color="#b3b3b3"/>
  </linearGradient>
  <path fill="url(#u)" d="M96.1 183c9.17 0 17.26.81 26.17 1.21 4.59.27 8.9.27 13.49.54s9.31.54 13.89.54c8.36 0 16.19-.54 24.41-.94h6.2c3.91 0 8.23-.27 12.14.13 2.43.27 4.99.27 7.28.54 3.24.4 8.77 1.08 11.19 2.02 2.16.94 3.78 2.43 4.59 3.37 1.62 1.75 3.91 4.45 2.7 6.47-.54 1.08-2.02 2.56-2.83 3.37-1.08 1.21-9.31 7.96-11.46 10.93-1.89 2.56-2.43 4.59-3.51 6.61-1.62 2.56.13 4.59-.4 6.07-1.75 1.75-3.24 3.64-4.72 5.66-.27.13-.54.27-.81 0-1.48-.94-1.08-3.1-.81-5.8.13-2.02 1.75-6.34 2.43-7.42 1.21-2.16 4.99-6.74 5.26-7.55 2.43-6.74-4.32-10.79-9.44-12.54-1.75-.54-3.37-1.21-5.13-1.48-6.61-1.21-13.62-1.08-20.77-1.21-4.86-.13-9.98-.4-14.97-.4h-10.79c-3.37-.27-6.88-.4-10.12-1.21-5.53-1.35-10.12-2.43-15.51-3.64-4.72-1.08-9.71-1.89-14.7-2.16-3.37-.27-9.31-.54-12.81-.54-2.56 0-21.85-.13-24.68.54-.94.13-.81 2.02-.13 2.16 3.64 1.08 17.4 1.35 26.44 1.08 5.4.27 11.33.94 16.32 1.62 6.47.94 12.54 2.16 18.61 4.05l6.47 1.62c1.08.27 2.43 1.08.94 2.02-4.05 0-7.69-.81-11.73-.81-10.25 0-24.95-.27-35.2-.27-1.08 0-50.71-.54-56.51-.94-6.61-.4-12.54-3.51-14.7-4.59-.81-.4-3.37-2.29-3.24-2.7.54-1.21 3.24-5.8 5.26-5.93 4.45.4 9.98.94 14.57 1.21 0 0 33.18-.4 34.12-.4 4.99-.4 16.86-.94 21.99-.94 2.95-.29 7.67-.43 10.5-.29"/>
  <linearGradient id="v" x1="375.2519" x2="491.3543" y1="310.1992" y2="310.1992" gradientTransform="matrix(1 0 0 -1 0 514)" gradientUnits="userSpaceOnUse">
    <stop offset="0" stop-color="#b3b3b3"/>
    <stop offset=".1172" stop-color="#fff"/>
    <stop offset=".2565" stop-color="#f7f7f7"/>
    <stop offset=".4722" stop-color="#e1e1e1"/>
    <stop offset=".6363" stop-color="#ccc"/>
    <stop offset="1" stop-color="#fff"/>
  </linearGradient>
  <path fill="url(#v)" d="M478.22 199.05H467.7c-5.93.27-12.41.13-18.48.27-8.09.13-26.71.27-27.65.4h-30.48c-1.08 0-7.82.27-9.85.27-.94 0-2.7-.13-3.51 0-1.62.27-4.05 3.51-1.08 3.51.13 0 .27 0 .4-.13.27 0 .67-.13.94-.13.81-.27 2.02 0 2.83.13 1.62.13 3.24.27 4.86.4 4.32.27 8.63.54 12.81.81 3.1.27 6.2.54 9.31.67 22.52 1.35 44.91 3.37 68.25 3.37 5.4 0 10.25-2.29 11.87-2.83.67-.27 2.29-.4 2.83-.94 1.21-1.08-.13-4.86-1.35-5.53-.8-.54-10.24-.27-11.18-.27"/>
  <linearGradient id="w" x1="352.7308" x2="371.2966" y1="307.8603" y2="307.8603" gradientTransform="matrix(1 0 0 -1 0 514)" gradientUnits="userSpaceOnUse">
    <stop offset="0" stop-color="#b3b3b3"/>
    <stop offset=".1172" stop-color="#fff"/>
    <stop offset=".2565" stop-color="#f7f7f7"/>
    <stop offset=".4722" stop-color="#e1e1e1"/>
    <stop offset=".6363" stop-color="#ccc"/>
    <stop offset="1" stop-color="#fff"/>
  </linearGradient>
  <path fill="url(#w)" d="M355.48 202.15c-1.08 0-2.16.54-2.56 1.75-.4.94-.4 2.16.4 2.83.81.67 2.16.81 3.1 1.08 1.62.4 3.37.81 4.99 1.35 1.89.4 3.51.67 5.8.94 1.75.13 3.24-.27 3.64-1.62.54-1.62.27-2.7-.94-3.37-.54-.27-2.97-.94-6.61-1.62-3.24-.67-6.75-1.21-7.82-1.34"/>
  <linearGradient id="x" x1="374.2017" x2="479.2798" y1="299.5101" y2="299.5101" gradientTransform="matrix(1 0 0 -1 0 514)" gradientUnits="userSpaceOnUse">
    <stop offset="0" stop-color="#b3b3b3"/>
    <stop offset=".1172" stop-color="#fff"/>
    <stop offset=".2565" stop-color="#f7f7f7"/>
    <stop offset=".4722" stop-color="#e1e1e1"/>
    <stop offset=".6363" stop-color="#ccc"/>
    <stop offset="1" stop-color="#fff"/>
  </linearGradient>
  <path fill="url(#x)" d="M376.11 207.27c-.4.13-.81.27-1.08.67-1.08 1.08-1.35 2.83.67 2.83.81-.27 3.1.13 3.91.27 1.48.27 2.97.4 4.45.67 6.07.94 12.14 1.89 18.21 2.83 7.28 1.21 14.57 2.43 21.99 3.24 5.26.54 10.39 1.48 15.65 2.02 8.09.81 16.05 1.89 24.68 1.89h2.56c.27 0 .4 0 .67-.13.27 0 .4 0 .67-.13h.81c.27 0 .4 0 .67-.13.13 0 .27 0 .54-.13h.4c.13 0 .27 0 .4-.13.13 0 .27 0 .4-.13.81-.13 1.62-.4 2.29-.54 2.7-.81 4.05-1.89 4.99-4.59.27-.54.4-1.48 0-2.02s-1.08-.54-1.75-.54h-10.25c-4.59-.13-9.31-.4-13.89-.54-17.26-.81-34.39-2.16-51.39-3.24-5.8-.4-11.6-.94-17.4-1.35-2.26-.28-5.64-.82-8.2-.82"/>
  <linearGradient id="y" x1="347.7902" x2="366.0798" y1="298.7727" y2="298.7727" gradientTransform="matrix(1 0 0 -1 0 514)" gradientUnits="userSpaceOnUse">
    <stop offset="0" stop-color="#b3b3b3"/>
    <stop offset=".1172" stop-color="#fff"/>
    <stop offset=".2565" stop-color="#f7f7f7"/>
    <stop offset=".4722" stop-color="#e1e1e1"/>
    <stop offset=".6363" stop-color="#ccc"/>
    <stop offset="1" stop-color="#fff"/>
  </linearGradient>
  <path fill="url(#y)" d="M351.16 210.78c-1.35.4-4.32 2.02-3.1 3.51.54.54 2.16 1.08 2.83 1.35.81.4.81.54 1.62.81.94.4 1.89.94 2.97 1.35 1.75.81 2.83 1.89 5.13 1.89 2.7 0 3.91.4 5.26-2.16.4-.67.13-1.35-.27-1.89-.67-.81-4.18-2.16-5.8-2.56-2.98-1.09-7.83-2.57-8.64-2.3"/>
  <linearGradient id="z" x1="369.6247" x2="464.8405" y1="290.2709" y2="290.2709" gradientTransform="matrix(1 0 0 -1 0 514)" gradientUnits="userSpaceOnUse">
    <stop offset="0" stop-color="#b3b3b3"/>
    <stop offset=".1172" stop-color="#fff"/>
    <stop offset=".2565" stop-color="#f7f7f7"/>
    <stop offset=".4722" stop-color="#e1e1e1"/>
    <stop offset=".6363" stop-color="#ccc"/>
    <stop offset="1" stop-color="#fff"/>
  </linearGradient>
  <path fill="url(#z)" d="M371.26 213.48c-.81.27-1.75.67-1.62 1.89.13.81.54 2.02 1.21 2.56 1.08.81 3.78 1.21 5.13 1.62 4.05 1.08 8.09 2.02 12.27 3.1 6.07 1.48 12.14 2.83 18.21 4.18 7.42 1.75 15.11 3.24 22.66 4.45 4.18.67 8.36 1.35 12.68 2.02 2.29.27 4.45.67 6.74.67.27 0 .4 0 .67-.13h1.21c.27 0 .54 0 .81-.13.27 0 .4 0 .67-.13h1.88c.27 0 .67 0 .94-.13.27 0 .4 0 .67-.13h.67c.27 0 .4 0 .67-.13.27 0 .4 0 .67-.13h.54c.14 0 .27 0 .4-.13.13 0 .27 0 .4-.13.13 0 .27 0 .4-.13.13 0 .27 0 .4-.13.81-.4 1.75-.4 2.56-.94 1.08-.67 3.64-4.18 2.29-5.26-1.08-.94-6.88-.67-8.77-.81-5.53-.4-10.93-1.08-16.46-1.62-7.82-.67-15.51-2.16-23.2-3.1-9.17-1.21-18.07-2.7-27.11-4.18-4.18-.67-8.36-1.35-12.54-2.16-1.68-.05-3.03-.99-5.05-.99"/>
  <linearGradient id="A" x1="340.2566" x2="358.4908" y1="290.8104" y2="290.8104" gradientTransform="matrix(1 0 0 -1 0 514)" gradientUnits="userSpaceOnUse">
    <stop offset="0" stop-color="#b3b3b3"/>
    <stop offset=".1172" stop-color="#fff"/>
    <stop offset=".2565" stop-color="#f7f7f7"/>
    <stop offset=".4722" stop-color="#e1e1e1"/>
    <stop offset=".6363" stop-color="#ccc"/>
    <stop offset="1" stop-color="#fff"/>
  </linearGradient>
  <path fill="url(#A)" d="M344.95 217.79c-1.62.13-4.45 1.08-4.72 3.1-.13.54 0 1.08.4 1.35.67.54 6.34 3.37 8.09 4.45 1.35.81 2.43 1.89 4.18 1.89 2.43-.13 3.24-.67 3.91-1.08 1.08-.67 2.29-2.16 1.35-3.37-.81-1.08-2.43-1.62-3.64-2.16s-2.56-1.21-3.78-1.75c-.93-.4-4.3-2.43-5.79-2.43"/>
  <linearGradient id="B" x1="362.1208" x2="446.6072" y1="280.2224" y2="280.2224" gradientTransform="matrix(1 0 0 -1 0 514)" gradientUnits="userSpaceOnUse">
    <stop offset="0" stop-color="#b3b3b3"/>
    <stop offset=".1172" stop-color="#fff"/>
    <stop offset=".2565" stop-color="#f7f7f7"/>
    <stop offset=".4722" stop-color="#e1e1e1"/>
    <stop offset=".6363" stop-color="#ccc"/>
    <stop offset="1" stop-color="#fff"/>
  </linearGradient>
  <path fill="url(#B)" d="M368.15 221.84c-.81.4-1.62.67-2.56 1.08-1.08.4-4.05 1.08-3.37 2.83.54 1.35 14.16 5.4 18.21 6.88 10.79 3.64 20.1 6.88 31.43 9.31 8.23 1.75 17.13 3.78 26.3 3.78h1.89c.13 0 .27 0 .4-.13.67-.27 1.21-.4 1.89-.81.94-.67 1.48-1.62 2.16-2.43.67-.67 1.62-1.21 2.02-2.16.13-.4.13-.94-.13-1.21-.27-.4-.81-.54-1.21-.67-2.16-.27-4.18-.54-6.34-.81-4.05-.67-8.23-1.35-12.27-2.02-5.53-.94-11.06-2.16-16.46-3.24-8.63-1.89-17.13-3.78-25.49-5.93-3.91-1.08-7.82-2.02-11.73-3.1l-2.43-.81c-.82-.15-1.36-.56-2.31-.56"/>
  <linearGradient id="C" x1="332.3297" x2="348.5942" y1="283.9316" y2="283.9316" gradientTransform="matrix(1 0 0 -1 0 514)" gradientUnits="userSpaceOnUse">
    <stop offset="0" stop-color="#b3b3b3"/>
    <stop offset=".1172" stop-color="#fff"/>
    <stop offset=".2565" stop-color="#f7f7f7"/>
    <stop offset=".4722" stop-color="#e1e1e1"/>
    <stop offset=".6363" stop-color="#ccc"/>
    <stop offset="1" stop-color="#fff"/>
  </linearGradient>
  <path fill="url(#C)" d="M337 224.54c-1.35.4-3.37-.27-4.18 1.08-.4.67-.54 1.75-.13 2.43.54.81 7.69 6.61 8.63 7.01 1.08.54 2.56.54 4.05.54 1.21 0 3.64-1.08 3.37-2.83-.13-.54-.4-.94-.81-1.21-1.08-.94-2.43-1.62-3.64-2.43-1.08-.67-2.16-1.48-3.24-2.16-.94-.67-1.75-1.21-2.7-1.89-.41-.41-.95-.54-1.35-.54"/>
  <linearGradient id="D" x1="323.8338" x2="338.0138" y1="277.9827" y2="277.9827" gradientTransform="matrix(1 0 0 -1 0 514)" gradientUnits="userSpaceOnUse">
    <stop offset="0" stop-color="#b3b3b3"/>
    <stop offset=".1172" stop-color="#fff"/>
    <stop offset=".2565" stop-color="#f7f7f7"/>
    <stop offset=".4722" stop-color="#e1e1e1"/>
    <stop offset=".6363" stop-color="#ccc"/>
    <stop offset="1" stop-color="#fff"/>
  </linearGradient>
  <path fill="url(#D)" d="M326.21 230.2c-1.21.27-2.56.81-2.29 2.43 0 .27 1.89 1.75 2.56 2.43 1.62 1.62 2.83 4.45 4.86 5.53 1.48.81 3.51 1.75 5.13.94 2.02-.94 1.48-2.97 1.21-3.37-1.48-1.89-3.51-3.37-5.26-4.99-.81-.81-1.62-2.02-2.7-2.43-.82-.67-2.3-.54-3.51-.54"/>
  <linearGradient id="E" x1="356.1498" x2="423.8602" y1="271.3149" y2="271.3149" gradientTransform="matrix(1 0 0 -1 0 514)" gradientUnits="userSpaceOnUse">
    <stop offset="0" stop-color="#b3b3b3"/>
    <stop offset=".1172" stop-color="#fff"/>
    <stop offset=".2565" stop-color="#f7f7f7"/>
    <stop offset=".4722" stop-color="#e1e1e1"/>
    <stop offset=".6363" stop-color="#ccc"/>
    <stop offset="1" stop-color="#fff"/>
  </linearGradient>
  <path fill="url(#E)" d="M360.47 230.61c-.94.4-4.32 1.62-4.32 2.56.13 1.35 2.16 2.02 3.37 2.43.94.27 1.75.81 2.56 1.21 1.75.94 3.51 1.89 5.26 2.7 2.83 1.35 5.53 2.83 8.36 4.18 4.05 2.16 8.09 4.05 12.27 5.8 4.32 1.75 8.77 3.91 13.49 4.72 4.05.67 8.77.54 13.22.54.4 0 .67 0 1.08-.13.54 0 1.21 0 1.75-.13h.94c.13 0 .4 0 .54-.13.13 0 .4 0 .54-.13.13 0 .27 0 .4-.13.4-.13.81-.4 1.35-.54.94-.67 3.37-3.1 2.29-4.32-.94-1.08-4.86-1.35-6.34-1.75-3.37-.67-6.61-1.48-9.85-2.29-11.73-2.97-23.06-6.74-34.26-10.52-2.83-1.08-5.8-2.16-8.63-3.1-1.33-.3-2.54-.97-4.02-.97"/>
  <linearGradient id="F" x1="348.8432" x2="400.1476" y1="263.9695" y2="263.9695" gradientTransform="matrix(1 0 0 -1 0 514)" gradientUnits="userSpaceOnUse">
    <stop offset="0" stop-color="#b3b3b3"/>
    <stop offset=".1172" stop-color="#fff"/>
    <stop offset=".2565" stop-color="#f7f7f7"/>
    <stop offset=".4722" stop-color="#e1e1e1"/>
    <stop offset=".6363" stop-color="#ccc"/>
    <stop offset="1" stop-color="#fff"/>
  </linearGradient>
  <path fill="url(#F)" d="M351.56 236.27c-.81.54-2.97 2.16-2.7 3.24.27 1.21 4.18 2.97 4.86 3.51 6.07 4.45 12 8.9 18.21 12.95 3.51 2.16 7.01 4.45 10.79 5.93 3.78 1.35 8.23 1.89 12.68 1.89h.81c.4-.13.67-.27 1.08-.4 1.08-.67 3.51-2.7 2.7-4.05-.13-.27-.54-.54-.81-.67-.94-.27-1.75-.67-2.7-.94-1.62-.54-3.1-1.08-4.72-1.75-4.86-1.89-9.58-4.05-14.3-6.34-6.47-3.1-12.81-6.34-19.15-9.71-2.02-1.08-3.91-2.16-5.8-3.37-.13 0-.27-.13-.54-.13-.14-.16-.27-.16-.41-.16"/>
  <linearGradient id="G" x1="339.3236" x2="377.859" y1="259.8557" y2="259.8557" gradientTransform="matrix(1 0 0 -1 0 514)" gradientUnits="userSpaceOnUse">
    <stop offset="0" stop-color="#b3b3b3"/>
    <stop offset=".1172" stop-color="#fff"/>
    <stop offset=".2565" stop-color="#f7f7f7"/>
    <stop offset=".4722" stop-color="#e1e1e1"/>
    <stop offset=".6363" stop-color="#ccc"/>
    <stop offset="1" stop-color="#fff"/>
  </linearGradient>
  <path fill="url(#G)" d="M342.12 240.32c-.4.13-.67.4-.94.67-.4.67-.67 1.48-.94 2.16s-.54 1.21-.81 1.89c-.13.4-.13.81 0 1.08.4.67 1.35.81 2.02 1.08.54.27 1.08.67 1.62 1.08 4.32 4.05 8.5 8.36 12.95 12.27 1.62 1.48 3.1 3.24 4.99 4.18 1.48.81 3.37 1.21 4.99 1.62 2.56.67 5.13 1.62 8.09 1.62 1.08-.54 4.32-1.48 3.78-3.24 0 0 0-.13-.13-.13 0-.13-.13-.27-.27-.27-1.08-1.21-2.7-1.75-4.05-2.56-2.43-1.48-4.86-3.1-7.15-4.59-5.8-3.78-11.33-8.09-16.99-12.27-2.02-1.48-3.51-3.91-6.07-4.59h-1.09"/>
  <linearGradient id="H" x1="329.1295" x2="357.2965" y1="255.8094" y2="255.8094" gradientTransform="matrix(1 0 0 -1 0 514)" gradientUnits="userSpaceOnUse">
    <stop offset="0" stop-color="#b3b3b3"/>
    <stop offset=".1172" stop-color="#fff"/>
    <stop offset=".2565" stop-color="#f7f7f7"/>
    <stop offset=".4722" stop-color="#e1e1e1"/>
    <stop offset=".6363" stop-color="#ccc"/>
    <stop offset="1" stop-color="#fff"/>
  </linearGradient>
  <path fill="url(#H)" d="M331.33 245.44c-1.35.4-2.7 2.02-2.02 3.64.27.81 1.21 1.08 1.89 1.62.67.54 1.08 1.08 1.48 1.75 2.83 3.78 5.53 7.69 8.5 11.33 1.08 1.35 2.29 3.24 3.91 4.32 2.02 1.35 6.07 2.83 8.77 2.83.94-.54 3.37-.54 3.51-2.02v-.13c-.13-1.35-2.83-3.24-3.78-4.18-4.18-3.91-8.23-7.82-12.41-11.73l-2.56-2.56c-.81-.94-1.48-1.89-2.43-2.7-1.35-1.36-3.1-2.17-4.86-2.17"/>
  <linearGradient id="I" x1="295.4722" x2="341.3642" y1="216.8969" y2="216.8969" gradientTransform="matrix(1 0 0 -1 0 514)" gradientUnits="userSpaceOnUse">
    <stop offset="0" stop-color="#b3b3b3"/>
    <stop offset=".1172" stop-color="#fff"/>
    <stop offset=".2565" stop-color="#f7f7f7"/>
    <stop offset=".4722" stop-color="#e1e1e1"/>
    <stop offset=".6363" stop-color="#ccc"/>
    <stop offset="1" stop-color="#fff"/>
  </linearGradient>
  <path fill="url(#I)" d="M340.5 275.93c-.67.4-4.72 7.82-8.23 12.81-3.91 5.53-8.77 10.93-14.3 15.24-4.59 3.64-9.04 6.2-14.03 8.9-3.1 1.48-7.15 3.24-7.96 3.91-.94.81-.54 1.48.67 1.48 1.08-.4 5.66-2.29 10.39-4.86 9.85-5.4 19.83-14.3 26.71-23.47 2.97-4.05 7.01-11.46 7.42-12.54.41-.93.14-1.34-.67-1.47"/>
  <linearGradient id="J" x1="356.2031" x2="374.179" y1="316.2777" y2="316.2777" gradientTransform="matrix(1 0 0 -1 0 514)" gradientUnits="userSpaceOnUse">
    <stop offset="0" stop-color="#b3b3b3"/>
    <stop offset=".1172" stop-color="#fff"/>
    <stop offset=".2565" stop-color="#f7f7f7"/>
    <stop offset=".4722" stop-color="#e1e1e1"/>
    <stop offset=".6363" stop-color="#ccc"/>
    <stop offset="1" stop-color="#fff"/>
  </linearGradient>
  <path fill="url(#J)" d="M356.15 197.29c-.13 2.43 6.74 1.89 8.36 2.02 2.43.27 7.28 2.02 8.23 1.21 1.08-.94 2.29-5.66.27-5.8-2.97-.13-4.05.27-7.28.4-3.24.28-9.31-.12-9.58 2.17"/>
  <linearGradient id="K" x1="313.1304" x2="352.7352" y1="301.1639" y2="301.1639" gradientTransform="matrix(1 0 0 -1 0 514)" gradientUnits="userSpaceOnUse">
    <stop offset="0" stop-color="#b3b3b3"/>
    <stop offset=".1172" stop-color="#fff"/>
    <stop offset=".2565" stop-color="#f7f7f7"/>
    <stop offset=".4722" stop-color="#e1e1e1"/>
    <stop offset=".6363" stop-color="#ccc"/>
    <stop offset="1" stop-color="#fff"/>
  </linearGradient>
  <path fill="url(#K)" d="M351.02 196.48c.67.13 1.62.13 1.75 1.08.13 1.08-.67 2.02-2.83 2.29-1.48-.13-4.59-2.83-5.8-.4-1.08 2.02 5.4 2.83 5.13 4.72-.27 1.62-.81 1.89-2.29 1.89-.67 0-2.29-.94-2.83-1.08-1.48-.67-4.99-3.37-6.2-1.21-1.35 2.16 7.55 5.13 7.28 6.74-.27 1.62-1.89 2.83-3.1 2.43-1.75-.4-7.15-6.74-9.58-4.18-2.29 2.29 6.88 6.34 6.34 7.69-.81 2.29-2.83 3.1-5.66.67-1.48-1.21-3.91-3.51-5.26-1.75-1.62 2.29 3.1 4.99 3.51 5.8 1.08 1.89-1.35 4.05-2.97 3.64-1.48-.13-3.64-5.66-5.8-3.78-1.62 1.48 2.29 4.86 1.89 6.34-.13 1.21-3.51 2.97-4.99 1.75-2.16-1.35 2.83-8.63-2.02-15.38-2.29-2.83-4.32-7.28-4.45-8.09-.13-1.35-.13-3.78.81-4.86 3.37-4.59 18.88-4.18 25.49-4.59 4.57-.26 7 .28 11.58.28"/>
  <linearGradient id="L" x1="316.9337" x2="327.4448" y1="273.6899" y2="273.6899" gradientTransform="matrix(1 0 0 -1 0 514)" gradientUnits="userSpaceOnUse">
    <stop offset="0" stop-color="#b3b3b3"/>
    <stop offset=".1172" stop-color="#fff"/>
    <stop offset=".2565" stop-color="#f7f7f7"/>
    <stop offset=".4722" stop-color="#e1e1e1"/>
    <stop offset=".6363" stop-color="#ccc"/>
    <stop offset="1" stop-color="#fff"/>
  </linearGradient>
  <path fill="url(#L)" d="M317.03 233.71c.81-1.62 4.59.13 4.99.54 1.08.94 1.35 2.43 2.16 3.51.94 1.35 3.37 4.18 3.24 5.66-.13 1.21-4.86 4.86-5.93 4.05 0 0 0-.13-.13-.13-.67-4.59-2.29-8.9-4.45-13.08-.01-.28.12-.41.12-.55"/>
  <linearGradient id="M" x1="321.7506" x2="340.832" y1="253.2467" y2="253.2467" gradientTransform="matrix(1 0 0 -1 0 514)" gradientUnits="userSpaceOnUse">
    <stop offset="0" stop-color="#b3b3b3"/>
    <stop offset=".1172" stop-color="#fff"/>
    <stop offset=".2565" stop-color="#f7f7f7"/>
    <stop offset=".4722" stop-color="#e1e1e1"/>
    <stop offset=".6363" stop-color="#ccc"/>
    <stop offset="1" stop-color="#fff"/>
  </linearGradient>
  <path fill="url(#M)" d="M322.16 249.63c1.35 0 3.51.54 4.45 1.35.81.67 1.08 1.62 1.62 2.43l2.83 3.91 6.47 8.5 2.97 3.78c.54.94.4 1.62-.4 2.29h-.54c-2.97 0-7.69-1.08-9.71-2.83-1.08-.94-1.62-1.89-2.16-2.97l-3.1-5.8c-.54-.81-2.29-3.51-2.7-4.45 0-.13-.13-.27-.13-.4v-2.29c0-.94 0-2.02-.13-2.97.26-.28.4-.55.53-.55"/>
  <linearGradient id="N" x1="284.2678" x2="335.0497" y1="220.9554" y2="220.9554" gradientTransform="matrix(1 0 0 -1 0 514)" gradientUnits="userSpaceOnUse">
    <stop offset="0" stop-color="#b3b3b3"/>
    <stop offset=".1172" stop-color="#fff"/>
    <stop offset=".2565" stop-color="#f7f7f7"/>
    <stop offset=".4722" stop-color="#e1e1e1"/>
    <stop offset=".6363" stop-color="#ccc"/>
    <stop offset="1" stop-color="#fff"/>
  </linearGradient>
  <path fill="url(#N)" d="M328.5 273.77c.81-.27 6.47 1.75 6.61 3.1 0 1.08-3.51 5.93-7.42 11.19-6.88 9.17-15.38 15.38-24.95 20.5-2.02 1.08-4.18 2.16-6.34 3.1l-1.89.67c-.54 0-1.08-.13-1.48-.54-.67-.81-8.23-11.73-8.5-12.14-.27-.4-.27-1.08 0-1.48 13.49-5.13 24.55-13.35 31.02-23.74 1.08-.27 2.97 1.35 3.78 1.75 1.48.67 3.24 1.35 4.99.94 1.89-.38 2.7-2.68 4.18-3.35"/>
  <linearGradient id="O" x1="293.4015" x2="501.4482" y1="306.9707" y2="306.9707" gradientTransform="matrix(1 0 0 -1 0 514)" gradientUnits="userSpaceOnUse">
    <stop offset="0" stop-color="#b3b3b3"/>
    <stop offset=".1172" stop-color="#fff"/>
    <stop offset=".2565" stop-color="#f7f7f7"/>
    <stop offset=".4722" stop-color="#e1e1e1"/>
    <stop offset=".6363" stop-color="#ccc"/>
    <stop offset="1" stop-color="#fff"/>
  </linearGradient>
  <path fill="url(#O)" d="M493.86 183.54c1.08 0 2.02 0 2.97.4 1.21.54 4.72 4.05 4.59 5.4 0 .67-4.32 2.02-6.34 2.83-1.48.67-4.72 1.89-5.26 2.16-.4.13-2.97.13-3.37.13h-6.34c-.67 0-13.08.4-17.26.4-4.72 0-9.31.13-13.89.13-1.08 0-6.34.13-6.74.13H402.3c-.94 0-7.55.13-10.39.4-4.05.27-9.98.81-10.12.81-.81 0-2.29.27-2.56-.54-.27-.94 1.75-1.35 2.29-1.48 7.15-1.35 14.3-3.1 22.52-4.05 13.49-1.62 19.96-1.89 22.25-2.56 1.21-.4 1.08-2.02 0-2.16-14.43-1.75-46.8 4.59-51.52 5.53-8.63 1.89-14.97 2.29-17.13 2.29h-20.1c-11.19 0-16.05 1.21-16.86 1.35-2.16.54-4.18 1.21-6.07 2.16-4.05 2.02-6.61 4.59-4.99 9.44.67 1.08 1.21 2.43 1.75 3.51 1.35 2.7 3.24 6.07 4.59 8.77 1.08 1.89 1.75 4.32 1.75 6.61l-.54 2.97c0 .54-1.35 2.7-1.89 2.29 0 0-.13-.13-.27-.4-.81-1.08-1.62-2.29-2.56-3.37-.27-.4-.54-.67-.67-.81-1.08-1.35 2.02-3.24 1.75-4.86-.54-3.37-5.66-9.85-9.44-12.95-2.16-1.75-4.32-4.18-6.2-6.47-.81-1.08-1.75-2.02-2.56-3.1-.67-.94-1.08-1.62-1.35-2.7-.54-2.29.81-3.78 2.43-4.99.94-.67 2.7-1.75 4.05-2.43 3.78-1.62 12.81-3.1 18.07-3.78 1.75-.13 6.07-.67 9.31-.81 3.64 0 7.01.13 10.39.4 6.61.54 12.95 1.75 19.83 1.75 9.98.13 19.42-.4 29.13-.94 4.32-.27 8.77-.54 13.35-.81 7.01-.54 28.46-.27 31.7-.13 1.62.13 15.78.67 22.93 1.21 1.62.13 2.83.27 3.91.4 3.1 0 6.34.13 9.44-.13 5.8-.4 11.6-.94 17.26-1.48l8.08-.52z"/>
  <linearGradient id="P" x1="317.0349" x2="325.3608" y1="246.5019" y2="246.5019" gradientTransform="matrix(1 0 0 -1 0 514)" gradientUnits="userSpaceOnUse">
    <stop offset="0" stop-color="#b3b3b3"/>
    <stop offset=".1172" stop-color="#fff"/>
    <stop offset=".2565" stop-color="#f7f7f7"/>
    <stop offset=".4722" stop-color="#e1e1e1"/>
    <stop offset=".6363" stop-color="#ccc"/>
    <stop offset="1" stop-color="#fff"/>
  </linearGradient>
  <path fill="url(#P)" d="M322.03 260.42c1.48-.13 4.72 12.81 2.7 13.89-2.02 1.08-6.88-1.35-7.55-2.02-.13-.13-.13-.27-.13-.4 1.89-3.51 3.24-7.15 4.05-10.93.25-.27.52-.41.93-.54"/>
  <radialGradient id="Q" cx="265.4478" cy="198.2802" r="9.6013" gradientTransform="matrix(1 0 0 -1 0 514)" gradientUnits="userSpaceOnUse">
    <stop offset="0" stop-color="#b3b3b3"/>
    <stop offset=".1172" stop-color="#fff"/>
    <stop offset=".2565" stop-color="#f7f7f7"/>
    <stop offset=".4722" stop-color="#e1e1e1"/>
    <stop offset=".6363" stop-color="#ccc"/>
    <stop offset="1" stop-color="#fff"/>
  </radialGradient>
  <path fill="url(#Q)" d="M264.7 302.9c.81.4 1.08 1.21 1.48 1.89.54 1.21 2.43 11.6 3.37 15.65.27 1.35.67 3.51.4 4.86-.13 1.21-1.62 2.97-3.24 3.24-1.21.13-3.78-1.75-4.18-2.7-.54-1.21-.4-2.83-.54-4.18-.27-4.45-.94-14.97-.94-16.05 0-.67.27-1.75.94-2.29.82-.28 1.77-.28 2.71-.42"/>
  <radialGradient id="R" cx="275.5031" cy="200.0033" r="9.9183" gradientTransform="matrix(1 0 0 -1 0 514)" gradientUnits="userSpaceOnUse">
    <stop offset="0" stop-color="#b3b3b3"/>
    <stop offset=".1172" stop-color="#fff"/>
    <stop offset=".2565" stop-color="#f7f7f7"/>
    <stop offset=".4722" stop-color="#e1e1e1"/>
    <stop offset=".6363" stop-color="#ccc"/>
    <stop offset="1" stop-color="#fff"/>
  </radialGradient>
  <path fill="url(#R)" d="M273.33 301.42c.4.4.67.81.94 1.08.81 1.08 4.45 11.33 6.2 15.24.54 1.35 1.35 3.37 1.35 4.86 0 1.35-1.08 3.37-2.56 3.78-1.21.4-4.18-1.08-4.72-1.89-.81-1.21-.94-2.7-1.35-4.18-1.08-4.32-3.64-14.97-3.91-16.05-.13-.54-.13-1.35.27-2.02 1.22-.28 2.57-.42 3.78-.82"/>
  <radialGradient id="S" cx="285.0359" cy="202.4894" r="10.1024" gradientTransform="matrix(1 0 0 -1 0 514)" gradientUnits="userSpaceOnUse">
    <stop offset="0" stop-color="#b3b3b3"/>
    <stop offset=".1172" stop-color="#fff"/>
    <stop offset=".2565" stop-color="#f7f7f7"/>
    <stop offset=".4722" stop-color="#e1e1e1"/>
    <stop offset=".6363" stop-color="#ccc"/>
    <stop offset="1" stop-color="#fff"/>
  </radialGradient>
  <path fill="url(#S)" d="M281.29 299.4c.54.27.94.81 1.21 1.08.94.94 5.8 10.66 7.96 14.43.67 1.21 1.75 3.24 1.89 4.59.13 1.21-.67 3.37-2.16 4.05-1.21.54-4.18-.54-4.99-1.35-.94-1.08-1.35-2.56-1.89-3.91-1.62-4.18-5.53-14.43-5.8-15.51-.13-.54-.27-1.48.13-2.29 1.36-.42 2.57-.82 3.65-1.09"/>
  <radialGradient id="T" cx="254.728" cy="197.744" r="9.4718" gradientTransform="matrix(1 0 0 -1 0 514)" gradientUnits="userSpaceOnUse">
    <stop offset="0" stop-color="#b3b3b3"/>
    <stop offset=".1172" stop-color="#fff"/>
    <stop offset=".2565" stop-color="#f7f7f7"/>
    <stop offset=".4722" stop-color="#e1e1e1"/>
    <stop offset=".6363" stop-color="#ccc"/>
    <stop offset="1" stop-color="#fff"/>
  </radialGradient>
  <path fill="url(#T)" d="M255.93 303.44c.67.54.94 1.35 1.21 2.02.4 1.21.94 11.73 1.35 15.92.13 1.35.27 3.51-.13 4.86-.4 1.21-2.02 2.83-3.51 2.83-1.21 0-3.51-2.16-3.91-3.1-.4-1.35-.13-2.83-.13-4.32.27-4.45.81-14.97.94-16.05.13-.67.4-1.62 1.08-2.16h3.1"/>
  <radialGradient id="U" cx="244.0716" cy="198.3714" r="9.5729" gradientTransform="matrix(1 0 0 -1 0 514)" gradientUnits="userSpaceOnUse">
    <stop offset="0" stop-color="#b3b3b3"/>
    <stop offset=".1172" stop-color="#fff"/>
    <stop offset=".2565" stop-color="#f7f7f7"/>
    <stop offset=".4722" stop-color="#e1e1e1"/>
    <stop offset=".6363" stop-color="#ccc"/>
    <stop offset="1" stop-color="#fff"/>
  </radialGradient>
  <path fill="url(#U)" d="M247.98 303.17c.54.67.67 1.48.81 2.16.27 1.21-.94 11.73-1.21 15.92-.13 1.35-.27 3.51-.94 4.86-.54 1.08-2.43 2.43-3.91 2.16-1.21-.13-3.1-2.7-3.37-3.64-.13-1.35.27-2.83.54-4.18.94-4.32 3.24-14.7 3.51-15.78.13-.54.54-1.21 1.08-1.75 1.33.12 2.41.25 3.49.25"/>
  <radialGradient id="V" cx="234.2194" cy="199.8932" r="9.8294" gradientTransform="matrix(1 0 0 -1 0 514)" gradientUnits="userSpaceOnUse">
    <stop offset="0" stop-color="#b3b3b3"/>
    <stop offset=".1172" stop-color="#fff"/>
    <stop offset=".2565" stop-color="#f7f7f7"/>
    <stop offset=".4722" stop-color="#e1e1e1"/>
    <stop offset=".6363" stop-color="#ccc"/>
    <stop offset="1" stop-color="#fff"/>
  </radialGradient>
  <path fill="url(#V)" d="M239.88 302.23c.67.81.67 1.89.67 2.56 0 1.35-2.97 11.46-3.91 15.51-.4 1.35-.94 3.37-1.75 4.59-.67 1.08-2.83 2.02-4.32 1.48-1.21-.4-2.7-3.1-2.56-4.18 0-1.35.81-2.7 1.35-4.05 1.62-4.05 5.66-13.89 6.2-14.84.27-.54.81-1.21 1.48-1.48.82.14 1.77.27 2.84.41"/>
  <radialGradient id="W" cx="224.5811" cy="202.6434" r="9.9125" gradientTransform="matrix(1 0 0 -1 0 514)" gradientUnits="userSpaceOnUse">
    <stop offset="0" stop-color="#b3b3b3"/>
    <stop offset=".1172" stop-color="#fff"/>
    <stop offset=".2565" stop-color="#f7f7f7"/>
    <stop offset=".4722" stop-color="#e1e1e1"/>
    <stop offset=".6363" stop-color="#ccc"/>
    <stop offset="1" stop-color="#fff"/>
  </radialGradient>
  <path fill="url(#W)" d="M231.93 300.48c.54.81.27 1.89.13 2.56-.13 1.21-4.72 10.79-6.34 14.7-.54 1.21-1.48 3.24-2.43 4.18-.94.94-3.1 1.48-4.45.81-1.08-.54-2.16-3.51-1.89-4.59.27-1.35 1.21-2.56 2.02-3.78 2.29-3.78 7.82-12.81 8.5-13.76.27-.4.67-.81 1.35-1.08.95.42 2.03.69 3.11.96"/>
  <radialGradient id="X" cx="256.4892" cy="330.8422" r="28.8976" gradientTransform="matrix(1 0 0 -1 0 514)" gradientUnits="userSpaceOnUse">
    <stop offset="0" stop-color="#b3b3b3"/>
    <stop offset=".1172" stop-color="#fff"/>
    <stop offset=".2565" stop-color="#f7f7f7"/>
    <stop offset=".4722" stop-color="#e1e1e1"/>
    <stop offset=".6363" stop-color="#ccc"/>
    <stop offset="1" stop-color="#fff"/>
  </radialGradient>
  <path fill="url(#X)" d="M216.15 187.04s-.94-1.89 1.21-2.97c2.16-1.08 18.61-6.34 38.04-6.34 21.31 0 39.92 6.88 41 7.69 1.48 1.21.13 3.37-1.48 3.1-1.62-.27-18.48-7.42-39.25-7.42s-35.2 5.4-36.55 6.2c-1.49.96-2.97-.26-2.97-.26"/>
  <radialGradient id="Y" cx="256.7462" cy="311.0903" r="39.4433" gradientTransform="matrix(1 0 0 -1 0 514)" gradientUnits="userSpaceOnUse">
    <stop offset="0" stop-color="#b3b3b3"/>
    <stop offset=".1172" stop-color="#fff"/>
    <stop offset=".2565" stop-color="#f7f7f7"/>
    <stop offset=".4722" stop-color="#e1e1e1"/>
    <stop offset=".6363" stop-color="#ccc"/>
    <stop offset="1" stop-color="#fff"/>
  </radialGradient>
  <path fill="url(#Y)" d="M255.8 183.94c-16.59 0-34.39 4.59-35.07 5.66-1.48 2.43 1.75 2.29 1.62 5.66-.13 4.05-3.24 6.74-4.45 7.96-4.18 4.45-9.58 6.74-13.35 11.6-.27.4-.54 2.02-.13 2.56.94 1.35 3.24-.13 3.91-.54 7.82-6.07 15.24-8.5 24.01-11.19 2.16-.67 13.35-2.97 27.79-2.43 12.81.54 24.55 3.78 34.8 9.85 4.05 2.43 7.69 5.26 11.6 8.5 1.35 1.21 2.56-.54 2.56-1.21s-.54-1.75-.94-2.43c-2.97-4.86-9.44-9.31-13.89-14.43-2.29-2.56-3.37-3.51-4.18-4.99-2.7-4.59 1.48-4.86.94-7.01-.42-1.76-16.74-7.56-35.22-7.56"/>
</svg>
